<svg width="220" height="49" viewBox="0 0 220 49" fill="none" xmlns="http://www.w3.org/2000/svg">
<g clip-path="url(#clip0_22_1732)">
<path d="M17.716 0.73877V3.34223H10.3524V22.5918H7.36363V3.34223H0V0.73877H17.716Z" fill="black"/>
<path d="M19.7161 0.73877H35.5716V3.4165H22.6017V10.051H34.5898V12.5802H22.6017V19.9883H35.7944V22.5918H19.7161V0.73877Z" fill="black"/>
<path d="M37.7943 0.73877H41.2802L52.1771 18.3957V0.73877H55.0029V22.5918H51.678L40.6201 4.95547V22.5918H37.7943V0.73877Z" fill="black"/>
<path d="M124.664 3.33078C129.259 3.33078 132.997 7.06887 132.997 11.6652C132.997 16.2614 129.259 19.9995 124.664 19.9995H68.0174C63.4219 19.9995 59.6844 16.2614 59.6844 11.6652C59.6844 7.06887 63.4219 3.33078 68.0174 3.33078H124.664ZM124.664 0.648926H68.0174C61.9347 0.648926 57.0029 5.58148 57.0029 11.6652C57.0029 17.7488 61.9347 22.6814 68.0174 22.6814H124.664C130.747 22.6814 135.678 17.7488 135.678 11.6652C135.678 5.58148 130.747 0.648926 124.664 0.648926Z" fill="black"/>
<path d="M137.678 0.73877H153.534V3.4165H140.564V10.051H152.552V12.5802H140.564V19.9883H153.757V22.5918H137.678V0.73877Z" fill="black"/>
<path d="M155.757 0.73877H158.745V22.5918H155.757V0.73877Z" fill="black"/>
<path d="M176.135 1.35537C178.276 2.49619 179.586 4.4952 180.064 7.35035H177.133C176.784 5.75361 176.06 4.5901 174.963 3.86187C173.866 3.13365 172.482 2.7685 170.813 2.7685C168.833 2.7685 167.164 3.52767 165.809 5.04395C164.454 6.56229 163.777 8.8233 163.777 11.827C163.777 14.4263 164.336 16.5409 165.454 18.1727C166.572 19.8045 168.394 20.6193 170.92 20.6193C172.855 20.6193 174.456 20.0458 175.724 18.9009C176.993 17.7559 177.64 15.9034 177.671 13.3453H170.83V10.8904H180.423V22.5833H178.519L177.805 19.7715C176.82 20.8731 175.947 21.6364 175.186 22.0634C173.907 22.7978 172.284 23.165 170.314 23.165C167.769 23.165 165.578 22.3275 163.744 20.6503C161.746 18.5481 160.745 15.662 160.745 11.992C160.745 8.322 161.723 5.42147 163.676 3.25949C165.533 1.19652 167.938 0.165039 170.889 0.165039C172.913 0.165039 174.662 0.561128 176.137 1.35537H176.135Z" fill="black"/>
<path d="M182.423 0.73877H185.412V9.76837H196.643V0.73877H199.634V22.5918H196.643V12.3718H185.412V22.5918H182.423V0.73877Z" fill="black"/>
<path d="M219.352 0.73877V3.34223H211.988V22.5918H208.997V3.34223H201.634V0.73877H219.35H219.352Z" fill="black"/>
</g>
<g clip-path="url(#clip1_22_1732)">
<path d="M4.2466 31.165C3.28893 32.9741 2.6668 34.3058 2.38019 35.1585C1.9468 36.458 1.7301 37.9579 1.7301 39.6599C1.7301 41.362 1.97651 42.9519 2.47107 44.3754C2.77689 45.2536 3.37631 46.5157 4.27456 48.165H3.1666C2.27534 46.8129 1.72311 45.95 1.5099 45.5763C1.2967 45.2026 1.06427 44.6964 0.814369 44.0543C0.471845 43.1761 0.234175 42.2402 0.101359 41.2431C0.0349515 40.7267 0 40.2341 0 39.767C0 38.0123 0.283107 36.4495 0.851068 35.0787C1.21107 34.2073 1.96078 32.9027 3.10194 31.165L4.2466 31.165Z" fill="black"/>
<path d="M12.5263 36.837V37.9853H9.39643C9.24614 41.2824 8.5908 45.072 6.3976 47.0034C6.22983 46.7486 5.8174 46.329 5.55352 46.1286C7.57721 44.4894 8.27099 41.0276 8.38459 37.9853H4.9541V36.837H12.5263ZM5.58672 31.8447H11.6228V32.993H5.58672V31.8447Z" fill="black"/>
<path d="M13.7569 32.9385C15.0501 33.5755 16.4377 34.4316 17.3185 35.1977L16.7383 36.2729C15.8016 35.4168 14.3948 34.4876 13.2327 33.905L13.7569 32.9402V32.9385ZM13.6259 45.1806C17.7676 43.1031 19.3614 39.1504 20.4117 34.2855C20.6546 34.4859 21.0496 34.7594 21.2558 34.8681C20.2439 39.8231 18.5383 43.8132 14.6762 45.9993C14.6395 46.1454 14.5643 46.2728 14.4699 46.3459L13.6259 45.1806Z" fill="black"/>
<path d="M29.864 35.7617V36.927H27.6149L27.69 45.3437C27.69 46.9642 26.7708 47.0933 24.7104 47.0933C24.6352 46.7468 24.5234 46.329 24.3923 45.9637C24.6178 45.9824 24.8991 45.9824 25.1787 45.9824C26.4352 45.9824 26.6415 45.9824 26.6415 45.3268L26.6048 38.2027C25.7432 40.6249 24.2805 42.9571 22.5382 44.7611C22.3879 44.452 22.1257 44.0137 21.8828 43.7589C23.6251 42.0467 25.3133 39.3679 26.1189 36.927H22.5015V35.7617H26.5314L26.4947 31.5898L27.8997 31.6629C27.8805 31.7903 27.7319 31.899 27.5624 31.9551L27.5816 35.7634H29.8675L29.864 35.7617Z" fill="black"/>
<path d="M30.3134 38.9854H37.2669V40.188H30.3134V38.9854Z" fill="black"/>
<path d="M37.5205 33.7031H43.8554V34.9058H41.2882V44.7069H44.3989V45.8909H37.0137V44.7069H40.1995V34.9058H37.5187V33.7031H37.5205Z" fill="black"/>
<path d="M48.1366 38.1836C47.1806 39.5493 45.8315 40.9711 44.6501 42.082C44.4999 41.7898 44.2762 41.445 43.9756 41.0985C46.8434 38.6031 49.5416 34.7574 50.854 31.6064L52.1105 32.2264C52.0354 32.3725 51.8484 32.4082 51.7173 32.4269C51.0235 33.903 50.0309 35.5796 49.1501 36.8535C49.2061 36.8722 49.3371 36.9453 49.4507 37.0166C49.4315 37.1083 49.3389 37.1984 49.2253 37.2171V47.0556H48.1383V38.1836H48.1366Z" fill="black"/>
<path d="M53.9053 31.2793L55.3855 31.388C55.3855 31.5528 55.2352 31.6972 55.0115 31.7345V37.0903C56.3047 37.7273 58.4035 38.8943 59.473 39.55L58.9662 40.6796C57.9544 40.0052 56.2488 39.003 55.0115 38.3287V47.1276H53.9053V31.2793Z" fill="black"/>
<path d="M60.2457 31.1648C61.5773 32.8583 63.0016 35.5014 63.0016 39.5629C63.0016 43.6243 61.5965 46.213 60.2457 47.9609H58.9717C60.4903 45.9396 61.6525 43.2608 61.6525 39.5442C61.6525 35.8276 60.5095 33.2218 58.9717 31.1631H60.2457V31.1648Z" fill="black"/>
</g>
<defs>
<clipPath id="clip0_22_1732">
<rect width="219.352" height="23" fill="white" transform="translate(0 0.165039)"/>
</clipPath>
<clipPath id="clip1_22_1732">
<rect width="63" height="17" fill="white" transform="translate(0 31.165)"/>
</clipPath>
</defs>
</svg>
