<svg width="347" height="67" viewBox="0 0 347 67" fill="none" xmlns="http://www.w3.org/2000/svg">
<g clip-path="url(#clip0_1_425)">
<path d="M28.6498 1.78955V5.99979H16.7416V37.1295H11.9082V5.99979H0V1.78955H28.6498Z" fill="black"/>
<path d="M30.9181 1.78955H56.5591V6.11989H35.5846V16.849H54.9714V20.9391H35.5846V32.9193H56.9194V37.1295H30.9181V1.78955Z" fill="black"/>
<path d="M59.1876 1.78955H64.8249L82.447 30.3438V1.78955H87.0169V37.1295H81.6398L63.7574 8.60867V37.1295H59.1876V1.78955Z" fill="black"/>
<path d="M198.704 5.98154C206.136 5.98154 212.18 12.0267 212.18 19.4596C212.18 26.8926 206.136 32.9377 198.704 32.9377H107.097C99.6656 32.9377 93.6214 26.8926 93.6214 19.4596C93.6214 12.0267 99.6656 5.98154 107.097 5.98154H198.704ZM198.704 1.64453H107.097C97.2606 1.64453 89.2851 9.62129 89.2851 19.4596C89.2851 29.298 97.2606 37.2747 107.097 37.2747H198.704C208.541 37.2747 216.516 29.298 216.516 19.4596C216.516 9.62129 208.541 1.64453 198.704 1.64453Z" fill="black"/>
<path d="M218.785 1.78955H244.426V6.11989H223.451V16.849H242.838V20.9391H223.451V32.9193H244.786V37.1295H218.785V1.78955Z" fill="black"/>
<path d="M247.054 1.78955H251.888V37.1295H247.054V1.78955Z" fill="black"/>
<path d="M279.043 2.78727C282.505 4.63217 284.624 7.86491 285.397 12.4822H280.657C280.094 9.89997 278.923 8.01837 277.148 6.84071C275.374 5.66304 273.136 5.07254 270.437 5.07254C267.235 5.07254 264.536 6.30025 262.345 8.75233C260.153 11.2077 259.059 14.8642 259.059 19.7216C259.059 23.9252 259.963 27.3448 261.771 29.9837C263.579 32.6226 266.524 33.9403 270.611 33.9403C273.739 33.9403 276.328 33.0129 278.379 31.1613C280.431 29.3098 281.478 26.3139 281.528 22.177H270.464V18.207H285.978V37.1164H282.899L281.745 32.5692C280.15 34.3507 278.739 35.5851 277.509 36.2757C275.441 37.4633 272.815 38.0572 269.63 38.0572C265.514 38.0572 261.971 36.7027 259.006 33.9904C255.774 30.5908 254.156 25.9236 254.156 19.9885C254.156 14.0535 255.737 9.36284 258.896 5.86655C261.898 2.53039 265.787 0.862305 270.56 0.862305C273.833 0.862305 276.661 1.50285 279.046 2.78727H279.043Z" fill="black"/>
<path d="M288.246 1.78955H293.079V16.3919H311.242V1.78955H316.079V37.1295H311.242V20.6022H293.079V37.1295H288.246V1.78955Z" fill="black"/>
<path d="M347 1.78955V5.99979H335.092V37.1295H330.255V5.99979H318.347V1.78955H346.997H347Z" fill="black"/>
</g>
<g clip-path="url(#clip1_1_425)">
<path d="M4.81617 47.1304C3.73005 49.1821 3.02448 50.6924 2.69943 51.6595C2.20791 53.1332 1.96214 54.8343 1.96214 56.7646C1.96214 58.695 2.2416 60.4981 2.8025 62.1125C3.14934 63.1085 3.82915 64.5399 4.84788 66.4105H3.59132C2.58052 64.877 1.95422 63.8983 1.71242 63.4745C1.47062 63.0507 1.20702 62.4766 0.923595 61.7484C0.53513 60.7524 0.265583 59.6909 0.114954 58.5601C0.0396393 57.9745 0 57.4158 0 56.886C0 54.896 0.321078 53.1236 0.965216 51.569C1.3735 50.5807 2.22376 49.1011 3.51798 47.1304L4.81617 47.1304Z" fill="black"/>
<path d="M14.2064 53.5633V54.8656H10.6567C10.4863 58.6048 9.74303 62.9028 7.25566 65.0932C7.06539 64.8042 6.59765 64.3284 6.29837 64.101C8.59349 62.242 9.38033 58.3159 9.50915 54.8656H5.61856V53.5633H14.2064ZM6.33603 47.9014H13.1817V49.2037H6.33603V47.9014Z" fill="black"/>
<path d="M15.6018 49.1416C17.0684 49.864 18.6421 50.835 19.641 51.7038L18.983 52.9233C17.9207 51.9523 16.3252 50.8985 15.0072 50.2378L15.6018 49.1435V49.1416ZM15.4531 63.0257C20.1504 60.6696 21.9579 56.1867 23.1491 50.6693C23.4246 50.8966 23.8725 51.2068 24.1064 51.3301C22.9588 56.9496 21.0244 61.4749 16.6443 63.9542C16.6027 64.1199 16.5175 64.2644 16.4104 64.3472L15.4531 63.0257Z" fill="black"/>
<path d="M33.8694 52.3437V53.6653H31.3186L31.4039 63.2109C31.4039 65.0488 30.3614 65.1952 28.0246 65.1952C27.9394 64.8022 27.8126 64.3283 27.6639 63.9141C27.9196 63.9353 28.2387 63.9353 28.5558 63.9353C29.9808 63.9353 30.2147 63.9353 30.2147 63.1917L30.1731 55.112C29.196 57.8592 27.5371 60.5042 25.561 62.5501C25.3906 62.1995 25.0933 61.7025 24.8178 61.4135C26.7938 59.4716 28.7084 56.4336 29.6221 53.6653H25.5194V52.3437H30.0898L30.0482 47.6123L31.6417 47.6951C31.6199 47.8396 31.4514 47.9629 31.2592 48.0265L31.281 52.3456H33.8734L33.8694 52.3437Z" fill="black"/>
<path d="M34.3792 55.9995H42.2654V57.3635H34.3792V55.9995Z" fill="black"/>
<path d="M42.5528 50.0088H49.7374V51.3727H46.8259V62.4885H50.3538V63.8312H41.9781V62.4885H45.5912V51.3727H42.5508V50.0088H42.5528Z" fill="black"/>
<path d="M54.5928 55.0901C53.5086 56.639 51.9786 58.2515 50.6388 59.5114C50.4683 59.18 50.2146 58.789 49.8737 58.396C53.1261 55.566 56.1863 51.2045 57.6747 47.6309L59.0998 48.334C59.0145 48.4997 58.8025 48.5402 58.6538 48.5613C57.867 50.2354 56.7412 52.1369 55.7423 53.5817C55.8057 53.6029 55.9544 53.6857 56.0832 53.7667C56.0614 53.8707 55.9564 53.9728 55.8275 53.994V65.1521H54.5948V55.0901H54.5928Z" fill="black"/>
<path d="M61.1352 47.2598L62.8139 47.3831C62.8139 47.5699 62.6435 47.7337 62.3898 47.7761V53.8502C63.8565 54.5726 66.2368 55.8961 67.4498 56.6397L66.875 57.9208C65.7274 57.156 63.793 56.0194 62.3898 55.2546V65.2337H61.1352V47.2598Z" fill="black"/>
<path d="M68.326 47.1299C69.8363 49.0505 71.4516 52.0481 71.4516 56.6543C71.4516 61.2605 69.8581 64.1964 68.326 66.1788H66.8812C68.6035 63.8863 69.9215 60.8482 69.9215 56.6331C69.9215 52.418 68.6253 49.4628 66.8812 47.1279H68.326V47.1299Z" fill="black"/>
</g>
<defs>
<clipPath id="clip0_1_425">
<rect width="347" height="37.1949" fill="white" transform="translate(0 0.862305)"/>
</clipPath>
<clipPath id="clip1_1_425">
<rect width="71.4498" height="19.2801" fill="white" transform="translate(0 47.1304)"/>
</clipPath>
</defs>
</svg>
