<svg width="848" height="83" viewBox="0 0 848 83" fill="none" xmlns="http://www.w3.org/2000/svg">
<path d="M63.3038 2.05835V11.4029H36.9917V80.4947H26.3121V11.4029H0V2.05835H63.3038Z" fill="black"/>
<path d="M69.7253 2.05835H126.381V11.6695H80.0365V35.4825H122.873V44.5605H80.0365V71.1502H127.177V80.4947H69.7253V2.05835Z" fill="black"/>
<path d="M133.599 2.05835H146.055L184.992 65.4339V2.05835H195.09V80.4947H183.209L143.696 17.1932V80.4947H133.599V2.05835Z" fill="black"/>
<path d="M443.28 11.3622C459.702 11.3622 473.057 24.7793 473.057 41.2766C473.057 57.774 459.702 71.191 443.28 71.191H240.869C224.448 71.191 211.093 57.774 211.093 41.2766C211.093 24.7793 224.448 11.3622 240.869 11.3622H443.28ZM443.28 1.73633H240.869C219.134 1.73633 201.511 19.4406 201.511 41.2766C201.511 63.1126 219.134 80.8169 240.869 80.8169H443.28C465.016 80.8169 482.638 63.1126 482.638 41.2766C482.638 19.4406 465.016 1.73633 443.28 1.73633Z" fill="black"/>
<path d="M489.06 2.05835H545.716V11.6695H499.371V35.4825H542.207V44.5605H499.371V71.1502H546.512V80.4947H489.06V2.05835Z" fill="black"/>
<path d="M552.933 2.05835H563.613V80.4947H552.933V2.05835Z" fill="black"/>
<path d="M625.025 4.27242C632.675 8.36714 637.355 15.5421 639.065 25.79H628.592C627.346 20.0589 624.759 15.8828 620.838 13.269C616.917 10.6551 611.972 9.34454 606.009 9.34454C598.934 9.34454 592.971 12.0694 588.129 17.5118C583.286 22.9615 580.869 31.0769 580.869 41.8579C580.869 51.1876 582.866 58.7773 586.861 64.6343C590.856 70.4913 597.364 73.4161 606.392 73.4161C613.306 73.4161 619.025 71.3576 623.558 67.2481C628.091 63.1386 630.405 56.4893 630.515 47.3077H606.068V38.4963H640.347V80.4652H633.545L630.994 70.3728C627.471 74.3269 624.354 77.0665 621.634 78.5993C617.065 81.2353 611.264 82.5533 604.225 82.5533C595.13 82.5533 587.303 79.5471 580.751 73.5272C573.609 65.9819 570.034 55.623 570.034 42.4503C570.034 29.2776 573.528 18.8668 580.508 11.1068C587.141 3.70227 595.735 0 606.282 0C613.512 0 619.762 1.42167 625.032 4.27242H625.025Z" fill="black"/>
<path d="M646.769 2.05835H657.449V34.4681H697.58V2.05835H708.267V80.4947H697.58V43.8126H657.449V80.4947H646.769V2.05835Z" fill="black"/>
<path d="M778 2.05835V11.4029H751.688V80.4947H741.001V11.4029H714.689V2.05835H777.993H778Z" fill="black"/>
</svg>
