<svg width="119" height="11" viewBox="0 0 119 11" fill="none" xmlns="http://www.w3.org/2000/svg">
<circle cx="4.8731" cy="5.95171" r="4.8731" fill="#171AC5"/>
<path d="M112.357 10.6487V1H118.777V1.77726H113.269V5.26152H118.24V6.03878H113.269V9.87147H118.911V10.6487H112.357Z" fill="black" stroke="black" stroke-width="0.1"/>
<path d="M102.834 1H103.745V6.74904C103.745 7.94619 103.968 8.80833 104.415 9.33543C104.862 9.86254 105.581 10.1261 106.572 10.1261C107.091 10.1261 107.528 10.0591 107.886 9.92508C108.252 9.78213 108.547 9.57218 108.77 9.29523C108.994 9.00934 109.154 8.65645 109.253 8.23655C109.351 7.81665 109.4 7.32081 109.4 6.74904V1H110.311V7.01706C110.311 8.27675 109.999 9.24162 109.373 9.91168C108.757 10.5728 107.823 10.9034 106.572 10.9034C105.313 10.9034 104.375 10.5639 103.758 9.88487C103.142 9.20589 102.834 8.24995 102.834 7.01706V1Z" fill="black" stroke="black" stroke-width="0.1"/>
<path d="M95.6418 10.6487V1H96.553V9.87147H101.726V10.6487H95.6418Z" fill="black" stroke="black" stroke-width="0.1"/>
<path d="M87.6146 9.87147H89.933C90.4333 9.87147 90.8666 9.84914 91.2329 9.80447C91.6081 9.7598 91.9164 9.67046 92.1576 9.53645C92.3988 9.3935 92.5775 9.19695 92.6936 8.9468C92.8187 8.68772 92.8812 8.34822 92.8812 7.92833C92.8812 7.52629 92.8142 7.20467 92.6802 6.96345C92.5462 6.7133 92.3541 6.52122 92.104 6.38721C91.8538 6.2532 91.5545 6.16386 91.2061 6.11919C90.8577 6.06558 90.4691 6.03878 90.0402 6.03878H87.6146V9.87147ZM87.6146 5.26152H89.9196C90.3931 5.26152 90.7907 5.22132 91.1123 5.14091C91.4339 5.06051 91.693 4.94437 91.8896 4.79249C92.0861 4.63168 92.2246 4.43959 92.305 4.21624C92.3943 3.98396 92.439 3.72041 92.439 3.42558C92.439 3.12183 92.3899 2.86721 92.2916 2.66173C92.1933 2.44731 92.037 2.27756 91.8226 2.15249C91.6081 2.01848 91.3267 1.92467 90.9783 1.87107C90.6388 1.80853 90.2189 1.77726 89.7186 1.77726H87.6146V5.26152ZM86.7034 10.6487V1H90.1876C90.7505 1 91.2329 1.05807 91.6349 1.17421C92.037 1.29036 92.3631 1.45563 92.6132 1.67005C92.8723 1.88447 93.0599 2.14355 93.1761 2.44731C93.2922 2.74213 93.3503 3.06822 93.3503 3.42558C93.3503 3.76508 93.3056 4.0599 93.2163 4.31005C93.1269 4.55127 93.0108 4.75675 92.8678 4.9265C92.7249 5.08731 92.5596 5.21685 92.372 5.31513C92.1933 5.40447 92.0057 5.46701 91.8092 5.50274V5.52954C92.4792 5.62782 92.975 5.89137 93.2967 6.3202C93.6272 6.74904 93.7925 7.28508 93.7925 7.92833C93.7925 8.42863 93.7121 8.853 93.5513 9.20142C93.3994 9.54985 93.185 9.83127 92.908 10.0457C92.6311 10.2601 92.2961 10.4164 91.903 10.5147C91.5188 10.6041 91.0989 10.6487 90.6433 10.6487H86.7034Z" fill="black" stroke="black" stroke-width="0.1"/>
<path d="M83.255 10.6485V9.46924H84.2333V10.6485H83.255Z" fill="black" stroke="black" stroke-width="0.1"/>
<path d="M78.1805 6.02552C77.85 6.02552 77.5462 6.06572 77.2693 6.14613C76.9923 6.22653 76.7511 6.35161 76.5456 6.52136C76.3401 6.68217 76.1793 6.89212 76.0632 7.1512C75.947 7.40136 75.889 7.70065 75.889 8.04907C75.889 8.34389 75.9426 8.61638 76.0498 8.86653C76.1659 9.11669 76.3223 9.33557 76.5188 9.52318C76.7243 9.70186 76.97 9.84481 77.2559 9.95202C77.5507 10.0592 77.8768 10.1128 78.2342 10.1128C78.5468 10.1128 78.8372 10.0637 79.1052 9.96542C79.3732 9.85821 79.6055 9.7108 79.8021 9.52318C80.0076 9.33557 80.1639 9.11222 80.2711 8.85313C80.3872 8.59405 80.4453 8.30816 80.4453 7.99547C80.4453 7.66491 80.3872 7.37902 80.2711 7.1378C80.155 6.88765 79.9942 6.68217 79.7887 6.52136C79.5832 6.35161 79.342 6.22653 79.065 6.14613C78.7881 6.06572 78.4932 6.02552 78.1805 6.02552ZM78.1403 1.92481C77.8723 1.92481 77.6222 1.96054 77.3899 2.03202C77.1576 2.10349 76.9521 2.2107 76.7734 2.35364C76.6037 2.49658 76.4697 2.67526 76.3714 2.88968C76.2731 3.1041 76.224 3.34978 76.224 3.62674C76.224 3.92156 76.2776 4.17618 76.3848 4.39059C76.501 4.59608 76.6528 4.76582 76.8404 4.89983C77.0281 5.03384 77.2425 5.13658 77.4837 5.20806C77.7249 5.27059 77.9751 5.30186 78.2342 5.30186C78.4932 5.30186 78.7345 5.27059 78.9578 5.20806C79.1812 5.13658 79.3732 5.02491 79.5341 4.87303C79.6949 4.72115 79.8199 4.52907 79.9093 4.29679C80.0076 4.0645 80.0567 3.77861 80.0567 3.43912C80.0567 2.95669 79.9003 2.58592 79.5877 2.32684C79.275 2.05882 78.7925 1.92481 78.1403 1.92481ZM76.6796 5.56988C76.4473 5.42694 76.2463 5.29293 76.0766 5.16785C75.9158 5.03384 75.7818 4.8909 75.6746 4.73902C75.5674 4.58714 75.4869 4.4174 75.4333 4.22978C75.3887 4.03323 75.3663 3.79202 75.3663 3.50613C75.3663 3.1845 75.4378 2.88075 75.5808 2.59486C75.7237 2.30897 75.9158 2.06328 76.157 1.8578C76.3982 1.64339 76.6796 1.47811 77.0013 1.36197C77.3318 1.24582 77.6847 1.19222 78.0599 1.20115C78.4173 1.20115 78.7657 1.24582 79.1052 1.33516C79.4536 1.4245 79.7619 1.56298 80.0299 1.75059C80.2979 1.93821 80.5123 2.17943 80.6731 2.47425C80.8339 2.76014 80.9144 3.1041 80.9144 3.50613C80.9144 3.9975 80.8116 4.4174 80.6061 4.76582C80.4096 5.11425 80.0835 5.40014 79.6279 5.62349C80.146 5.8111 80.5525 6.11039 80.8474 6.52136C81.1511 6.93232 81.303 7.41476 81.303 7.96867C81.303 8.43323 81.2226 8.8442 81.0618 9.20156C80.9099 9.55892 80.6865 9.85821 80.3917 10.0994C80.1058 10.3406 79.7574 10.5238 79.3464 10.6489C78.9355 10.7739 78.4798 10.8365 77.9795 10.8365C77.64 10.8365 77.2916 10.7784 76.9343 10.6623C76.5858 10.5461 76.2687 10.3719 75.9828 10.1396C75.7058 9.90735 75.478 9.61699 75.2993 9.26856C75.1207 8.92014 75.0313 8.51364 75.0313 8.04907C75.0313 7.48623 75.1698 6.98592 75.4467 6.54816C75.7326 6.10146 76.1436 5.77537 76.6796 5.56988Z" fill="black" stroke="black" stroke-width="0.1"/>
<path d="M73.0524 5.99874C73.0524 5.4895 73.0212 4.99366 72.9586 4.51122C72.905 4.01985 72.7934 3.58209 72.6236 3.19792C72.4539 2.81376 72.2126 2.50554 71.9 2.27325C71.5962 2.04097 71.1942 1.92483 70.6939 1.92483C70.2204 1.92483 69.8317 2.04544 69.528 2.28665C69.2332 2.51894 69.0009 2.83163 68.8311 3.22473C68.6614 3.61782 68.5408 4.06452 68.4693 4.56483C68.4068 5.06513 68.3755 5.57437 68.3755 6.09254C68.3755 6.70006 68.4112 7.25396 68.4827 7.75427C68.5631 8.24564 68.6926 8.66554 68.8713 9.01396C69.05 9.36239 69.2868 9.63488 69.5816 9.83143C69.8853 10.019 70.265 10.1128 70.7207 10.1128C71.2299 10.1128 71.6364 9.98777 71.9402 9.73762C72.2528 9.48747 72.4896 9.16584 72.6504 8.77275C72.8112 8.37965 72.9184 7.93742 72.972 7.44605C73.0256 6.95467 73.0524 6.47224 73.0524 5.99874ZM70.7207 1.20117C71.1852 1.20117 71.5873 1.27264 71.9268 1.41559C72.2663 1.5496 72.5521 1.73721 72.7844 1.97843C73.0256 2.21965 73.2177 2.50107 73.3607 2.82269C73.5125 3.14432 73.6287 3.48828 73.7091 3.85457C73.7895 4.21193 73.8431 4.5827 73.8699 4.96686C73.8967 5.35102 73.9101 5.72625 73.9101 6.09254C73.9101 6.71792 73.8654 7.3165 73.7761 7.88828C73.6868 8.46006 73.5215 8.96483 73.2803 9.40259C73.048 9.84036 72.7263 10.1888 72.3154 10.4479C71.9044 10.707 71.3728 10.8365 70.7207 10.8365C70.0685 10.8365 69.5324 10.707 69.1125 10.4479C68.7016 10.1888 68.3755 9.84036 68.1343 9.40259C67.902 8.95589 67.7412 8.44219 67.6518 7.86148C67.5625 7.27183 67.5178 6.65092 67.5178 5.99874C67.5178 5.40016 67.558 4.81498 67.6384 4.2432C67.7188 3.67143 67.8707 3.16219 68.0941 2.71549C68.3264 2.25985 68.6524 1.89356 69.0723 1.6166C69.4922 1.33965 70.0417 1.20117 70.7207 1.20117Z" fill="black" stroke="black" stroke-width="0.1"/>
<path d="M65.606 5.99874C65.606 5.4895 65.5747 4.99366 65.5122 4.51122C65.4586 4.01985 65.3469 3.58209 65.1772 3.19792C65.0074 2.81376 64.7662 2.50554 64.4535 2.27325C64.1498 2.04097 63.7477 1.92483 63.2474 1.92483C62.7739 1.92483 62.3853 2.04544 62.0815 2.28665C61.7867 2.51894 61.5544 2.83163 61.3847 3.22473C61.2149 3.61782 61.0943 4.06452 61.0229 4.56483C60.9603 5.06513 60.929 5.57437 60.929 6.09254C60.929 6.70006 60.9648 7.25396 61.0363 7.75427C61.1167 8.24564 61.2462 8.66554 61.4249 9.01396C61.6036 9.36239 61.8403 9.63488 62.1351 9.83143C62.4389 10.019 62.8186 10.1128 63.2742 10.1128C63.7835 10.1128 64.19 9.98777 64.4937 9.73762C64.8064 9.48747 65.0432 9.16584 65.204 8.77275C65.3648 8.37965 65.472 7.93742 65.5256 7.44605C65.5792 6.95467 65.606 6.47224 65.606 5.99874ZM63.2742 1.20117C63.7388 1.20117 64.1408 1.27264 64.4803 1.41559C64.8198 1.5496 65.1057 1.73721 65.338 1.97843C65.5792 2.21965 65.7713 2.50107 65.9142 2.82269C66.0661 3.14432 66.1822 3.48828 66.2626 3.85457C66.3431 4.21193 66.3967 4.5827 66.4235 4.96686C66.4503 5.35102 66.4637 5.72625 66.4637 6.09254C66.4637 6.71792 66.419 7.3165 66.3297 7.88828C66.2403 8.46006 66.075 8.96483 65.8338 9.40259C65.6015 9.84036 65.2799 10.1888 64.8689 10.4479C64.458 10.707 63.9264 10.8365 63.2742 10.8365C62.622 10.8365 62.086 10.707 61.6661 10.4479C61.2551 10.1888 60.929 9.84036 60.6878 9.40259C60.4555 8.95589 60.2947 8.44219 60.2054 7.86148C60.1161 7.27183 60.0714 6.65092 60.0714 5.99874C60.0714 5.40016 60.1116 4.81498 60.192 4.2432C60.2724 3.67143 60.4243 3.16219 60.6476 2.71549C60.8799 2.25985 61.206 1.89356 61.6259 1.6166C62.0458 1.33965 62.5952 1.20117 63.2742 1.20117Z" fill="black" stroke="black" stroke-width="0.1"/>
<path d="M56.6854 3.62676H54.2464V3.06391C54.6038 3.03711 54.9254 3.00138 55.2113 2.95671C55.5061 2.91203 55.7607 2.82716 55.9752 2.70209C56.1985 2.57701 56.3817 2.39833 56.5246 2.16605C56.6765 1.92483 56.7882 1.6032 56.8596 1.20117H57.5431V10.6489H56.6854V3.62676Z" fill="black" stroke="black" stroke-width="0.1"/>
<path d="M51.7495 10.6485V9.46924H52.7278V10.6485H51.7495Z" fill="black" stroke="black" stroke-width="0.1"/>
<path d="M48.1252 9.36223H48.152L50.256 1H51.194L48.6612 10.6487H47.6562L45.4182 2.12569H45.3914L43.1534 10.6487H42.1483L39.6558 1H40.567L42.6442 9.36223H42.671L44.909 1H45.9274L48.1252 9.36223Z" fill="black" stroke="black" stroke-width="0.1"/>
<path d="M36.2161 9.36223H36.2429L38.3469 1H39.2849L36.7522 10.6487H35.7471L33.5091 2.12569H33.4823L31.2443 10.6487H30.2393L27.7467 1H28.6579L30.7351 9.36223H30.7619L32.9999 1H34.0183L36.2161 9.36223Z" fill="black" stroke="black" stroke-width="0.1"/>
<path d="M24.307 9.36223H24.3338L26.4378 1H27.3758L24.843 10.6487H23.838L21.6 2.12569H21.5732L19.3352 10.6487H18.3301L15.8376 1H16.7488L18.826 9.36223H18.8528L21.0908 1H22.1092L24.307 9.36223Z" fill="black" stroke="black" stroke-width="0.1"/>
</svg>
