<svg width="291" height="24" viewBox="0 0 291 24" fill="none" xmlns="http://www.w3.org/2000/svg">
<g clip-path="url(#clip0_22_1849)">
<path d="M17.716 1.07373V3.67719H10.3524V22.9267H7.36363V3.67719H0V1.07373H17.716Z" fill="black"/>
<path d="M19.7161 1.07373H35.5716V3.75146H22.6017V10.386H34.5898V12.9152H22.6017V20.3233H35.7944V22.9267H19.7161V1.07373Z" fill="black"/>
<path d="M37.7943 1.07373H41.2802L52.1771 18.7307V1.07373H55.0029V22.9267H51.678L40.6201 5.29043V22.9267H37.7943V1.07373Z" fill="black"/>
<path d="M124.664 3.66574C129.259 3.66574 132.997 7.40384 132.997 12.0001C132.997 16.5964 129.259 20.3345 124.664 20.3345H68.0174C63.4219 20.3345 59.6844 16.5964 59.6844 12.0001C59.6844 7.40384 63.4219 3.66574 68.0174 3.66574H124.664ZM124.664 0.983887H68.0174C61.9347 0.983887 57.0029 5.91644 57.0029 12.0001C57.0029 18.0838 61.9347 23.0164 68.0174 23.0164H124.664C130.747 23.0164 135.678 18.0838 135.678 12.0001C135.678 5.91644 130.747 0.983887 124.664 0.983887Z" fill="black"/>
<path d="M137.678 1.07373H153.534V3.75146H140.564V10.386H152.552V12.9152H140.564V20.3233H153.757V22.9267H137.678V1.07373Z" fill="black"/>
<path d="M155.757 1.07373H158.745V22.9267H155.757V1.07373Z" fill="black"/>
<path d="M176.135 1.69033C178.276 2.83115 179.586 4.83016 180.064 7.68531H177.133C176.784 6.08857 176.06 4.92506 174.963 4.19683C173.866 3.46861 172.482 3.10346 170.813 3.10346C168.833 3.10346 167.164 3.86263 165.809 5.37891C164.454 6.89726 163.777 9.15827 163.777 12.1619C163.777 14.7613 164.336 16.8758 165.454 18.5076C166.572 20.1394 168.394 20.9543 170.92 20.9543C172.855 20.9543 174.456 20.3808 175.724 19.2359C176.993 18.0909 177.64 16.2384 177.671 13.6803H170.83V11.2254H180.423V22.9182H178.519L177.805 20.1064C176.82 21.208 175.947 21.9713 175.186 22.3984C173.907 23.1328 172.284 23.5 170.314 23.5C167.769 23.5 165.578 22.6624 163.744 20.9852C161.746 18.8831 160.745 15.997 160.745 12.327C160.745 8.65697 161.723 5.75644 163.676 3.59445C165.533 1.53148 167.938 0.5 170.889 0.5C172.913 0.5 174.662 0.896089 176.137 1.69033H176.135Z" fill="black"/>
<path d="M182.423 1.07373H185.412V10.1033H196.643V1.07373H199.634V22.9267H196.643V12.7068H185.412V22.9267H182.423V1.07373Z" fill="black"/>
<path d="M219.352 1.07373V3.67719H211.988V22.9267H208.997V3.67719H201.634V1.07373H219.35H219.352Z" fill="black"/>
</g>
<g clip-path="url(#clip1_22_1849)">
<path d="M231.598 3.5C230.641 5.30905 230.019 6.64079 229.732 7.49351C229.299 8.79297 229.082 10.2929 229.082 11.9949C229.082 13.6969 229.328 15.2869 229.823 16.7103C230.129 17.5885 230.728 18.8506 231.626 20.5H230.518C229.627 19.1479 229.075 18.285 228.862 17.9113C228.649 17.5376 228.416 17.0314 228.166 16.3893C227.824 15.5111 227.586 14.5751 227.453 13.578C227.387 13.0617 227.352 12.569 227.352 12.1019C227.352 10.3472 227.635 8.78447 228.203 7.41367C228.563 6.54227 229.313 5.23771 230.454 3.5L231.598 3.5Z" fill="black"/>
<path d="M239.878 9.17199V10.3203H236.748C236.598 13.6173 235.943 17.407 233.75 19.3384C233.582 19.0836 233.169 18.664 232.906 18.4636C234.929 16.8244 235.623 13.3625 235.737 10.3203H232.306V9.17199H239.878ZM232.939 4.17969H238.975V5.32797H232.939V4.17969Z" fill="black"/>
<path d="M241.109 5.27344C242.402 5.91043 243.79 6.76654 244.67 7.53263L244.09 8.60787C243.153 7.75176 241.747 6.8226 240.584 6.23996L241.109 5.27514V5.27344ZM240.978 17.5155C245.119 15.4381 246.713 11.4854 247.764 6.62046C248.006 6.8209 248.401 7.09438 248.608 7.20309C247.596 12.158 245.89 16.1481 242.028 18.3343C241.991 18.4804 241.916 18.6078 241.822 18.6808L240.978 17.5155Z" fill="black"/>
<path d="M257.216 8.09667V9.26193H254.967L255.042 17.6787C255.042 19.2992 254.123 19.4283 252.062 19.4283C251.987 19.0818 251.875 18.6639 251.744 18.2987C251.97 18.3174 252.251 18.3174 252.531 18.3174C253.787 18.3174 253.994 18.3174 253.994 17.6617L253.957 10.5376C253.095 12.9599 251.633 15.2921 249.89 17.0961C249.74 16.7869 249.478 16.3487 249.235 16.0939C250.977 14.3816 252.665 11.7029 253.471 9.26193H249.854V8.09667H253.883L253.847 3.9248L255.252 3.99785C255.233 4.12524 255.084 4.23396 254.914 4.29001L254.934 8.09837H257.22L257.216 8.09667Z" fill="black"/>
<path d="M257.665 11.3203H264.619V12.523H257.665V11.3203Z" fill="black"/>
<path d="M264.872 6.0376H271.207V7.24024H268.64V17.0414H271.751V18.2253H264.365V17.0414H267.551V7.24024H264.87V6.0376H264.872Z" fill="black"/>
<path d="M275.489 10.5185C274.533 11.8843 273.184 13.306 272.002 14.4169C271.852 14.1248 271.628 13.7799 271.328 13.4334C274.196 10.9381 276.894 7.09239 278.206 3.94141L279.463 4.56141C279.388 4.70749 279.201 4.74316 279.07 4.76185C278.376 6.23797 277.383 7.91453 276.502 9.18851C276.558 9.20719 276.689 9.28024 276.803 9.35158C276.784 9.4433 276.691 9.53333 276.577 9.55202V19.3905H275.49V10.5185H275.489Z" fill="black"/>
<path d="M281.257 3.61377L282.738 3.72248C282.738 3.88725 282.587 4.03164 282.364 4.06901V9.42482C283.657 10.0618 285.756 11.2288 286.825 11.8845L286.318 13.014C285.307 12.3397 283.601 11.3375 282.364 10.6631V19.4621H281.257V3.61377Z" fill="black"/>
<path d="M287.598 3.50023C288.929 5.19378 290.354 7.83686 290.354 11.8983C290.354 15.9598 288.948 18.5485 287.598 20.2964H286.324C287.842 18.275 289.004 15.5963 289.004 11.8796C289.004 8.163 287.861 5.55729 286.324 3.49854H287.598V3.50023Z" fill="black"/>
</g>
<defs>
<clipPath id="clip0_22_1849">
<rect width="219.352" height="23" fill="white" transform="translate(0 0.5)"/>
</clipPath>
<clipPath id="clip1_22_1849">
<rect width="63" height="17" fill="white" transform="translate(227.352 3.5)"/>
</clipPath>
</defs>
</svg>
