<svg width="22" height="22" viewBox="0 0 22 22" fill="none" xmlns="http://www.w3.org/2000/svg">
<path d="M6.2901 0.00146484H15.3999C18.8703 0.00146484 21.69 2.82117 21.69 6.29157V15.4014C21.69 17.0696 21.0273 18.6695 19.8477 19.8491C18.6681 21.0288 17.0681 21.6915 15.3999 21.6915H6.2901C2.8197 21.6915 0 18.8718 0 15.4014V6.29157C0 4.62333 0.662705 3.02342 1.84233 1.84379C3.02195 0.66417 4.62186 0.00146484 6.2901 0.00146484ZM6.0732 2.17046C5.03774 2.17046 4.04469 2.5818 3.31251 3.31398C2.58033 4.04616 2.169 5.03921 2.169 6.07467V15.6183C2.169 17.7764 3.91505 19.5225 6.0732 19.5225H15.6168C16.6523 19.5225 17.6453 19.1111 18.3775 18.379C19.1097 17.6468 19.521 16.6537 19.521 15.6183V6.07467C19.521 3.91651 17.775 2.17046 15.6168 2.17046H6.0732ZM16.5386 3.79721C16.8982 3.79721 17.243 3.94004 17.4972 4.19427C17.7514 4.4485 17.8943 4.79331 17.8943 5.15284C17.8943 5.51237 17.7514 5.85718 17.4972 6.11141C17.243 6.36564 16.8982 6.50847 16.5386 6.50847C16.1791 6.50847 15.8343 6.36564 15.5801 6.11141C15.3258 5.85718 15.183 5.51237 15.183 5.15284C15.183 4.79331 15.3258 4.4485 15.5801 4.19427C15.8343 3.94004 16.1791 3.79721 16.5386 3.79721ZM10.845 5.42397C12.2831 5.42397 13.6624 5.99526 14.6793 7.01218C15.6962 8.02909 16.2675 9.40833 16.2675 10.8465C16.2675 12.2846 15.6962 13.6638 14.6793 14.6808C13.6624 15.6977 12.2831 16.269 10.845 16.269C9.40686 16.269 8.02763 15.6977 7.01071 14.6808C5.9938 13.6638 5.4225 12.2846 5.4225 10.8465C5.4225 9.40833 5.9938 8.02909 7.01071 7.01218C8.02763 5.99526 9.40686 5.42397 10.845 5.42397ZM10.845 7.59297C9.98212 7.59297 9.15458 7.93574 8.54443 8.54589C7.93428 9.15604 7.5915 9.98358 7.5915 10.8465C7.5915 11.7093 7.93428 12.5369 8.54443 13.147C9.15458 13.7572 9.98212 14.1 10.845 14.1C11.7079 14.1 12.5354 13.7572 13.1456 13.147C13.7557 12.5369 14.0985 11.7093 14.0985 10.8465C14.0985 9.98358 13.7557 9.15604 13.1456 8.54589C12.5354 7.93574 11.7079 7.59297 10.845 7.59297Z" fill="black"/>
</svg>
