<svg width="1464" height="154" viewBox="0 0 1464 154" fill="none" xmlns="http://www.w3.org/2000/svg">
<path d="M117.509 0.257812V17.6038H68.6665V145.857H48.8422V17.6038H0V0.257812H117.509Z" fill="black"/>
<path d="M129.85 0.257812H235.019V18.0986H148.99V62.3019H228.506V79.153H148.99V128.511H236.496V145.857H129.85V0.257812Z" fill="black"/>
<path d="M248.838 0.257812H271.959L344.237 117.9V0.257812H362.981V145.857H340.926L267.581 28.3522V145.857H248.838V0.257812Z" fill="black"/>
<path d="M832.338 18.1261C862.82 18.1261 887.61 43.0317 887.61 73.6551C887.61 104.279 862.82 129.184 832.338 129.184H456.608C426.126 129.184 401.336 104.279 401.336 73.6551C401.336 43.0317 426.126 18.1261 456.608 18.1261H832.338ZM832.338 0.257812H456.608C416.262 0.257812 383.55 33.1217 383.55 73.6551C383.55 114.189 416.262 147.052 456.608 147.052H832.338C872.684 147.052 905.396 114.189 905.396 73.6551C905.396 33.1217 872.684 0.257812 832.338 0.257812Z" fill="black"/>
<path d="M925.965 4.0791H1031.13V21.9199H945.105V66.1232H1024.62V82.9743H945.105V132.332H1032.61V149.678H925.965V4.0791Z" fill="black"/>
<path d="M1044.95 4.0791H1064.78V149.678H1044.95V4.0791Z" fill="black"/>
<path d="M1179.19 8.18857C1193.4 15.7894 1202.08 29.1082 1205.26 48.131H1185.82C1183.5 37.4925 1178.7 29.7404 1171.42 24.8885C1164.15 20.0366 1154.96 17.6038 1143.9 17.6038C1130.76 17.6038 1119.69 22.6619 1110.71 32.7643C1101.72 42.8805 1097.23 57.9448 1097.23 77.9572C1097.23 95.2757 1100.94 109.364 1108.35 120.236C1115.77 131.108 1127.85 136.538 1144.61 136.538C1157.44 136.538 1168.06 132.717 1176.47 125.088C1184.89 117.46 1189.18 105.117 1189.39 88.0734H1144.01V71.7171H1207.64V149.623H1195.01L1190.28 130.888C1183.74 138.228 1177.95 143.314 1172.9 146.159C1164.42 151.052 1153.65 153.499 1140.59 153.499C1123.7 153.499 1109.17 147.918 1097.01 136.744C1083.75 122.738 1077.12 103.509 1077.12 79.0568C1077.12 54.6048 1083.6 35.2796 1096.56 20.875C1108.87 7.13022 1124.83 0.257812 1144.4 0.257812C1157.82 0.257812 1169.43 2.89682 1179.21 8.18857H1179.19Z" fill="black"/>
<path d="M1219.98 4.0791H1239.8V64.2401H1314.3V4.0791H1334.14V149.678H1314.3V81.5861H1239.8V149.678H1219.98V4.0791Z" fill="black"/>
<path d="M1464 4.0791V21.4251H1415.16V149.678H1395.32V21.4251H1346.48V4.0791H1463.99H1464Z" fill="black"/>
</svg>
