<svg width="48" height="13" viewBox="0 0 48 13" fill="none" xmlns="http://www.w3.org/2000/svg">
<g clip-path="url(#clip0_1_274)">
<path d="M3.23551 0.686035C2.50585 1.96301 2.03184 2.90306 1.81348 3.50498C1.48327 4.42225 1.31817 5.481 1.31817 6.68244C1.31817 7.88388 1.50591 9.00618 1.88272 10.011C2.11573 10.6309 2.57243 11.5218 3.25681 12.686H2.41265C1.73359 11.7316 1.31284 11.1225 1.1504 10.8587C0.987961 10.5949 0.810874 10.2376 0.620472 9.78436C0.359501 9.16445 0.178419 8.50378 0.0772261 7.79994C0.0266297 7.43544 0 7.08771 0 6.75798C0 5.51937 0.2157 4.41625 0.648433 3.44863C0.922718 2.83352 1.49393 1.91265 2.36338 0.686035L3.23551 0.686035Z" fill="black"/>
<path d="M9.54387 4.68951V5.50006H7.15918C7.04468 7.8274 6.54537 10.5025 4.87436 11.8658C4.74653 11.6859 4.4323 11.3897 4.23125 11.2483C5.77311 10.0912 6.30171 7.64754 6.38825 5.50006H3.77455V4.68951H9.54387ZM4.25655 1.16553H8.85549V1.97608H4.25655V1.16553Z" fill="black"/>
<path d="M10.4815 1.93774C11.4668 2.38738 12.524 2.9917 13.195 3.53247L12.753 4.29146C12.0393 3.68714 10.9675 3.03127 10.082 2.62L10.4815 1.93894V1.93774ZM10.3816 10.5792C13.5372 9.1128 14.7515 6.32264 15.5518 2.88858C15.7368 3.03007 16.0378 3.22312 16.1949 3.29985C15.4239 6.79746 14.1244 9.614 11.1818 11.1572C11.1539 11.2603 11.0966 11.3502 11.0247 11.4018L10.3816 10.5792Z" fill="black"/>
<path d="M22.7528 3.93068V4.75323H21.0391L21.0964 10.6945C21.0964 11.8384 20.396 11.9295 18.8262 11.9295C18.769 11.6849 18.6837 11.3899 18.5839 11.1321C18.7556 11.1453 18.97 11.1453 19.1831 11.1453C20.1404 11.1453 20.2975 11.1453 20.2975 10.6825L20.2695 5.65371C19.6131 7.36354 18.4987 9.00982 17.1712 10.2832C17.0567 10.065 16.857 9.75562 16.6719 9.57577C17.9994 8.36714 19.2856 6.47625 19.8994 4.75323H17.1432V3.93068H20.2136L20.1857 0.98584L21.2562 1.0374C21.2415 1.12733 21.1284 1.20407 20.9992 1.24363L21.0138 3.93188H22.7554L22.7528 3.93068Z" fill="black"/>
<path d="M23.0959 6.2063H28.3939V7.05522H23.0959V6.2063Z" fill="black"/>
<path d="M28.5873 2.47754H33.4139V3.32646H31.458V10.2449H33.828V11.0807H28.2012V10.2449H30.6285V3.32646H28.586V2.47754H28.5873Z" fill="black"/>
<path d="M36.6751 5.64049C35.9467 6.60452 34.9188 7.60811 34.0188 8.39229C33.9043 8.18605 33.7338 7.94265 33.5048 7.69804C35.6898 5.93665 37.7456 3.22202 38.7455 0.997803L39.7029 1.43545C39.6456 1.53857 39.5031 1.56375 39.4033 1.57694C38.8747 2.61891 38.1184 3.80236 37.4473 4.70164C37.4899 4.71483 37.5898 4.76639 37.6763 4.81675C37.6617 4.8815 37.5911 4.94504 37.5046 4.95823V11.9031H36.6764V5.64049H36.6751Z" fill="black"/>
<path d="M41.0703 0.766357L42.1981 0.843096C42.1981 0.959403 42.0836 1.06132 41.9131 1.0877V4.86828C42.8984 5.31792 44.4976 6.14166 45.3124 6.60449L44.9263 7.40185C44.1554 6.92583 42.8558 6.2184 41.9131 5.74238V11.9534H41.0703V0.766357Z" fill="black"/>
<path d="M45.9012 0.686013C46.9158 1.88146 48.001 3.74716 48.001 6.61407C48.001 9.48098 46.9305 11.3083 45.9012 12.5421H44.9306C46.0876 11.1153 46.9731 9.22438 46.9731 6.60088C46.9731 3.97738 46.1023 2.13805 44.9306 0.684814H45.9012V0.686013Z" fill="black"/>
</g>
<defs>
<clipPath id="clip0_1_274">
<rect width="48" height="12" fill="white" transform="translate(0 0.686035)"/>
</clipPath>
</defs>
</svg>
