<svg width="231" height="212" viewBox="0 0 231 212" fill="none" xmlns="http://www.w3.org/2000/svg">
<path d="M224.287 201.271H230.542V207.796H224.287V201.271Z" fill="black"/>
<path d="M186.471 163.832H218.524V169.219H192.277V182.566H216.548V187.654H192.277V202.558H218.973V207.796H186.471V163.832Z" fill="black"/>
<path d="M151.135 163.832V191.006C151.135 194.198 151.734 196.852 152.931 198.967C154.707 202.159 157.7 203.756 161.909 203.756C166.957 203.756 170.389 202.03 172.205 198.578C173.182 196.702 173.671 194.179 173.671 191.006V163.832H179.717V188.522C179.717 193.929 178.988 198.089 177.532 201.002C174.858 206.309 169.81 208.963 162.388 208.963C154.966 208.963 149.928 206.309 147.275 201.002C145.818 198.089 145.09 193.929 145.09 188.522V163.832H151.135Z" fill="black"/>
<path d="M140.255 207.676L137.262 211.297L130.468 206.12C128.832 207.018 127.056 207.736 125.141 208.274C123.246 208.813 121.171 209.083 118.916 209.083C112.092 209.083 106.745 206.848 102.875 202.379C99.4627 198.029 97.7568 192.582 97.7568 186.038C97.7568 180.092 99.2333 175.005 102.186 170.775C105.977 165.348 111.584 162.634 119.006 162.634C126.767 162.634 132.513 165.128 136.244 170.116C139.157 174.007 140.614 178.985 140.614 185.05C140.614 187.884 140.265 190.607 139.566 193.221C138.509 197.211 136.723 200.463 134.209 202.977L140.255 207.676ZM119.634 203.755C120.871 203.755 122.028 203.676 123.106 203.516C124.183 203.336 125.121 202.997 125.919 202.498L121.101 198.727L124.093 195.046L129.84 199.506C131.655 197.431 132.882 195.106 133.521 192.532C134.179 189.959 134.508 187.494 134.508 185.14C134.508 179.973 133.152 175.813 130.438 172.66C127.745 169.508 124.054 167.932 119.365 167.932C114.616 167.932 110.855 169.448 108.082 172.481C105.309 175.493 103.922 180.142 103.922 186.427C103.922 191.714 105.249 195.924 107.902 199.057C110.576 202.189 114.487 203.755 119.634 203.755Z" fill="black"/>
<path d="M87.3838 163.832H93.3993V207.796H87.3838V163.832Z" fill="black"/>
<path d="M44.8086 163.832H51.8417L74.0483 199.446V163.832H79.7047V207.796H73.0307L50.4949 172.211V207.796H44.8086V163.832Z" fill="black"/>
<path d="M10.0455 163.832V191.006C10.0455 194.198 10.644 196.852 11.8411 198.967C13.6169 202.159 16.6097 203.756 20.8195 203.756C25.8674 203.756 29.2991 202.03 31.1148 198.578C32.0924 196.702 32.5812 194.179 32.5812 191.006V163.832H38.6267V188.522C38.6267 193.929 37.8985 198.089 36.442 201.002C33.7684 206.309 28.7205 208.963 21.2984 208.963C13.8762 208.963 8.83836 206.309 6.18474 201.002C4.72825 198.089 4 193.929 4 188.522V163.832H10.0455Z" fill="black"/>
<path d="M186.45 109.634H218.503V115.021H192.256V128.369H216.528V133.457H192.256V148.361H218.952V153.599H186.45V109.634Z" fill="black"/>
<path d="M165.096 129.776C167.889 129.776 170.094 129.217 171.71 128.1C173.346 126.983 174.164 124.967 174.164 122.054C174.164 118.922 173.027 116.787 170.752 115.65C169.535 115.051 167.909 114.752 165.874 114.752H151.329V129.776H165.096ZM145.373 109.634H165.724C169.076 109.634 171.839 110.123 174.014 111.101C178.144 112.976 180.209 116.438 180.209 121.486C180.209 124.119 179.661 126.274 178.563 127.95C177.486 129.626 175.969 130.973 174.014 131.991C175.73 132.689 177.017 133.607 177.875 134.744C178.753 135.881 179.242 137.727 179.341 140.281L179.551 146.176C179.611 147.852 179.75 149.099 179.97 149.917C180.329 151.314 180.967 152.212 181.885 152.611V153.599H174.583C174.383 153.219 174.224 152.731 174.104 152.132C173.984 151.533 173.884 150.376 173.805 148.66L173.446 141.328C173.306 138.455 172.238 136.53 170.243 135.552C169.106 135.013 167.32 134.744 164.886 134.744H151.329V153.599H145.373V109.634Z" fill="black"/>
<path d="M129.403 135.582L122.729 116.159L115.636 135.582H129.403ZM119.617 109.634H126.35L142.302 153.599H135.778L131.318 140.43H113.93L109.172 153.599H103.066L119.617 109.634Z" fill="black"/>
<path d="M58.9453 109.634H90.9982V115.021H64.7513V128.369H89.023V133.457H64.7513V148.361H91.4471V153.599H58.9453V109.634Z" fill="black"/>
<path d="M6.46445 109.634L14.7545 145.398L24.6906 109.634H31.1551L41.0912 145.398L49.3812 109.634H55.9055L44.3533 153.599H38.0984L27.9528 117.146L17.7473 153.599H11.4924L0 109.634H6.46445Z" fill="black"/>
<path d="M224.288 91.2715H230.543V97.7958H224.288V91.2715Z" fill="black"/>
<path d="M186.473 53.8315H218.526V59.2186H192.279V72.5665H216.55V77.6542H192.279V92.5584H218.974V97.7958H186.473V53.8315Z" fill="black"/>
<path d="M151.137 53.8315V81.0062C151.137 84.1985 151.736 86.8521 152.933 88.967C154.709 92.1593 157.701 93.7555 161.911 93.7555C166.959 93.7555 170.391 92.0297 172.207 88.578C173.184 86.7025 173.673 84.1785 173.673 81.0062V53.8315H179.719V78.5222C179.719 83.9291 178.99 88.0891 177.534 91.0021C174.86 96.3094 169.812 98.963 162.39 98.963C154.968 98.963 149.93 96.3094 147.277 91.0021C145.82 88.0891 145.092 83.9291 145.092 78.5222V53.8315H151.137Z" fill="black"/>
<path d="M140.256 97.6759L137.263 101.297L130.469 96.1197C128.833 97.0175 127.057 97.7358 125.142 98.2745C123.246 98.8132 121.171 99.0825 118.917 99.0825C112.093 99.0825 106.746 96.8479 102.876 92.3787C99.4637 88.0291 97.7578 82.5822 97.7578 76.038C97.7578 70.0923 99.2343 65.0045 102.187 60.7747C105.978 55.3477 111.585 52.6343 119.007 52.6343C126.768 52.6343 132.514 55.1283 136.245 60.1163C139.158 64.0069 140.615 68.9849 140.615 75.0504C140.615 77.8835 140.266 80.607 139.567 83.2207C138.51 87.2111 136.724 90.4633 134.21 92.9772L140.256 97.6759ZM119.635 93.7554C120.872 93.7554 122.029 93.6756 123.107 93.5159C124.184 93.3364 125.122 92.9972 125.92 92.4984L121.102 88.7275L124.094 85.0463L129.841 89.5056C131.656 87.4306 132.883 85.1062 133.522 82.5324C134.18 79.9585 134.509 77.4945 134.509 75.1401C134.509 69.9726 133.153 65.8126 130.439 62.6602C127.746 59.5077 124.055 57.9315 119.366 57.9315C114.617 57.9315 110.856 59.4479 108.083 62.4806C105.31 65.4933 103.923 70.1422 103.923 76.427C103.923 81.7143 105.25 85.9242 107.903 89.0567C110.577 92.1891 114.488 93.7554 119.635 93.7554Z" fill="black"/>
<path d="M87.3857 53.8315H93.4013V97.7958H87.3857V53.8315Z" fill="black"/>
<path d="M44.8105 53.8315H51.8436L74.0502 89.4459V53.8315H79.7066V97.7958H73.0326L50.4969 62.2114V97.7958H44.8105V53.8315Z" fill="black"/>
<path d="M10.0455 53.8315V81.0062C10.0455 84.1985 10.644 86.8521 11.8411 88.967C13.6169 92.1593 16.6097 93.7555 20.8195 93.7555C25.8674 93.7555 29.2991 92.0297 31.1148 88.578C32.0924 86.7025 32.5812 84.1785 32.5812 81.0062V53.8315H38.6267V78.5222C38.6267 83.9291 37.8985 88.0891 36.442 91.0021C33.7684 96.3094 28.7205 98.963 21.2984 98.963C13.8762 98.963 8.83836 96.3094 6.18474 91.0021C4.72825 88.0891 4 83.9291 4 78.5222V53.8315H10.0455Z" fill="black"/>
<path d="M42.5352 0H74.5881V5.38704H48.3412V18.7349H72.6128V23.8227H48.3412V38.7268H75.037V43.9642H42.5352V0Z" fill="black"/>
<path d="M20.6699 18.5853C23.1839 18.5853 25.1391 18.2361 26.5358 17.5378C28.7305 16.4405 29.8279 14.4652 29.8279 11.6121C29.8279 8.73898 28.6607 6.80363 26.3263 5.80603C25.0095 5.24738 23.0542 4.96805 20.4604 4.96805H9.83596V18.5853H20.6699ZM22.6751 38.8765C26.3263 38.8765 28.93 37.819 30.4863 35.7041C31.4639 34.3673 31.9528 32.7512 31.9528 30.8558C31.9528 27.6635 30.5262 25.4887 27.6731 24.3315C26.1567 23.713 24.1515 23.4037 21.6575 23.4037H9.83596V38.8765H22.6751ZM4 0H22.8846C28.0322 0 31.6934 1.5363 33.8682 4.60891C35.1451 6.42455 35.7835 8.51951 35.7835 10.8938C35.7835 13.6671 34.9954 15.9417 33.4192 17.7174C32.6012 18.6551 31.424 19.5131 29.8877 20.2912C32.1423 21.1491 33.8282 22.1168 34.9456 23.1942C36.9208 25.1096 37.9084 27.7532 37.9084 31.1251C37.9084 33.9583 37.0206 36.5221 35.2448 38.8166C32.5912 42.2484 28.3714 43.9642 22.5853 43.9642H4V0Z" fill="black"/>
</svg>
