<svg width="63" height="18" viewBox="0 0 63 18" fill="none" xmlns="http://www.w3.org/2000/svg">
<g clip-path="url(#clip0_282_168)">
<path d="M4.2466 0.498535C3.28893 2.30759 2.6668 3.63932 2.38019 4.49204C1.9468 5.7915 1.7301 7.2914 1.7301 8.99344C1.7301 10.6955 1.97651 12.2854 2.47107 13.7089C2.77689 14.5871 3.37631 15.8492 4.27456 17.4985H3.1666C2.27534 16.1464 1.72311 15.2835 1.5099 14.9098C1.2967 14.5361 1.06427 14.0299 0.814369 13.3878C0.471845 12.5096 0.234175 11.5737 0.101359 10.5766C0.0349515 10.0602 0 9.56758 0 9.10045C0 7.34576 0.283107 5.78301 0.851068 4.4122C1.21107 3.5408 1.96078 2.23624 3.10194 0.498535L4.2466 0.498535Z" fill="black"/>
<path d="M12.5263 6.17004V7.31832H9.39643C9.24614 10.6154 8.5908 14.4051 6.3976 16.3364C6.22983 16.0816 5.8174 15.662 5.55352 15.4616C7.57721 13.8224 8.27099 10.3606 8.38459 7.31832H4.9541V6.17004H12.5263ZM5.58672 1.17773H11.6228V2.32602H5.58672V1.17773Z" fill="black"/>
<path d="M13.7569 2.27197C15.0501 2.90896 16.4377 3.76508 17.3185 4.53117L16.7383 5.60641C15.8016 4.75029 14.3948 3.82113 13.2327 3.2385L13.7569 2.27367V2.27197ZM13.6259 14.5141C17.7676 12.4366 19.3614 8.4839 20.4117 3.619C20.6546 3.81944 21.0496 4.09292 21.2558 4.20163C20.2439 9.15657 18.5383 13.1467 14.6762 15.3328C14.6395 15.4789 14.5643 15.6063 14.4699 15.6793L13.6259 14.5141Z" fill="black"/>
<path d="M29.864 5.0952V6.26047H27.6149L27.69 14.6772C27.69 16.2977 26.7708 16.4268 24.7104 16.4268C24.6352 16.0803 24.5234 15.6624 24.3923 15.2972C24.6178 15.3159 24.8991 15.3159 25.1787 15.3159C26.4352 15.3159 26.6415 15.3159 26.6415 14.6603L26.6048 7.53615C25.7432 9.95841 24.2805 12.2906 22.5382 14.0946C22.3879 13.7854 22.1257 13.3472 21.8828 13.0924C23.6251 11.3802 25.3133 8.70142 26.1189 6.26047H22.5015V5.0952H26.5314L26.4947 0.92334L27.8997 0.996381C27.8805 1.12378 27.7319 1.23249 27.5624 1.28855L27.5816 5.0969H29.8675L29.864 5.0952Z" fill="black"/>
<path d="M30.3135 8.31885H37.2671V9.52149H30.3135V8.31885Z" fill="black"/>
<path d="M37.5205 3.03613H43.8554V4.23877H41.2882V14.0399H44.3989V15.2239H37.0137V14.0399H40.1995V4.23877H37.5187V3.03613H37.5205Z" fill="black"/>
<path d="M48.1366 7.51757C47.1806 8.88328 45.8315 10.305 44.6501 11.4159C44.4999 11.1238 44.2762 10.779 43.9756 10.4324C46.8434 7.93713 49.5416 4.09141 50.854 0.94043L52.1105 1.56043C52.0354 1.70652 51.8484 1.74219 51.7173 1.76087C51.0235 3.23699 50.0309 4.91355 49.1501 6.18753C49.2061 6.20622 49.3371 6.27926 49.4507 6.3506C49.4315 6.44233 49.3389 6.53236 49.2253 6.55104V16.3896H48.1383V7.51757H48.1366Z" fill="black"/>
<path d="M53.9053 0.612305L55.3855 0.721018C55.3855 0.885786 55.2352 1.03017 55.0115 1.06754V6.42336C56.3047 7.06035 58.4035 8.22731 59.473 8.88299L58.9662 10.0126C57.9544 9.33822 56.2488 8.33603 55.0115 7.66166V16.4606H53.9053V0.612305Z" fill="black"/>
<path d="M60.2459 0.498769C61.5776 2.19231 63.0018 4.8354 63.0018 8.89685C63.0018 12.9583 61.5968 15.547 60.2459 17.2949H58.9719C60.4906 15.2735 61.6527 12.5948 61.6527 8.87817C61.6527 5.16154 60.5098 2.55582 58.9719 0.49707H60.2459V0.498769Z" fill="black"/>
</g>
<defs>
<clipPath id="clip0_282_168">
<rect width="63" height="17" fill="white" transform="translate(0 0.498535)"/>
</clipPath>
</defs>
</svg>
