<svg width="1464" height="90" viewBox="0 0 1464 90" fill="none" xmlns="http://www.w3.org/2000/svg">
<path d="M1452.54 71.2935H1464V83.2479H1452.54V71.2935Z" fill="black"/>
<path d="M1383.25 2.69238H1441.98V12.563H1393.89V37.0202H1438.36V46.3425H1393.89V73.6512H1442.8V83.2476H1383.25V2.69238Z" fill="black"/>
<path d="M1318.5 2.69238V52.4842C1318.5 58.3335 1319.6 63.1956 1321.79 67.0708C1325.05 72.92 1330.53 75.8447 1338.25 75.8447C1347.49 75.8447 1353.78 72.6824 1357.11 66.3579C1358.9 62.9215 1359.8 58.2969 1359.8 52.4842V2.69238H1370.87V47.9327C1370.87 57.8399 1369.54 65.4622 1366.87 70.7997C1361.97 80.5241 1352.72 85.3863 1339.12 85.3863C1325.52 85.3863 1316.29 80.5241 1311.43 70.7997C1308.76 65.4622 1307.43 57.8399 1307.43 47.9327V2.69238H1318.5Z" fill="black"/>
<path d="M1298.57 83.0284L1293.08 89.6637L1280.63 80.1769C1277.64 81.822 1274.38 83.1381 1270.87 84.1251C1267.4 85.1122 1263.6 85.6057 1259.47 85.6057C1246.97 85.6057 1237.17 81.5113 1230.08 73.3223C1223.82 65.3527 1220.7 55.3724 1220.7 43.3814C1220.7 32.4872 1223.4 23.1649 1228.81 15.4146C1235.76 5.47089 1246.03 0.499023 1259.63 0.499023C1273.85 0.499023 1284.38 5.06876 1291.22 14.2082C1296.56 21.337 1299.22 30.4582 1299.22 41.5718C1299.22 46.763 1298.58 51.7532 1297.31 56.5422C1295.37 63.8538 1292.1 69.8127 1287.49 74.419L1298.57 83.0284ZM1260.78 75.8448C1263.05 75.8448 1265.17 75.6985 1267.15 75.4061C1269.12 75.0771 1270.84 74.4556 1272.3 73.5416L1263.47 66.6322L1268.95 59.8873L1279.48 68.058C1282.81 64.2559 1285.06 59.9969 1286.23 55.281C1287.43 50.565 1288.04 46.0501 1288.04 41.7363C1288.04 32.2678 1285.55 24.6455 1280.58 18.8694C1275.64 13.0932 1268.88 10.2051 1260.29 10.2051C1251.59 10.2051 1244.7 12.9835 1239.62 18.5403C1234.54 24.0606 1231.99 32.5785 1231.99 44.0943C1231.99 53.7821 1234.43 61.4958 1239.29 67.2354C1244.19 72.975 1251.35 75.8448 1260.78 75.8448Z" fill="black"/>
<path d="M1201.69 2.69238H1212.71V83.2476H1201.69V2.69238Z" fill="black"/>
<path d="M1123.68 2.69238H1136.57L1177.26 67.9482V2.69238H1187.62V83.2476H1175.39L1134.1 18.0467V83.2476H1123.68V2.69238Z" fill="black"/>
<path d="M1059.99 2.69238V52.4842C1059.99 58.3335 1061.08 63.1956 1063.28 67.0708C1066.53 72.92 1072.01 75.8447 1079.73 75.8447C1088.98 75.8447 1095.26 72.6824 1098.59 66.3579C1100.38 62.9215 1101.28 58.2969 1101.28 52.4842V2.69238H1112.35V47.9327C1112.35 57.8399 1111.02 65.4622 1108.35 70.7997C1103.45 80.5241 1094.2 85.3863 1080.6 85.3863C1067 85.3863 1057.77 80.5241 1052.91 70.7997C1050.24 65.4622 1048.91 57.8399 1048.91 47.9327V2.69238H1059.99Z" fill="black"/>
<path d="M954.246 2.69238H1012.98V12.563H964.885V37.0202H1009.36V46.3425H964.885V73.6512H1013.8V83.2476H954.246V2.69238Z" fill="black"/>
<path d="M915.116 39.5975C920.235 39.5975 924.274 38.5739 927.235 36.5267C930.233 34.4794 931.732 30.7871 931.732 25.4497C931.732 19.7101 929.648 15.7984 925.481 13.7146C923.251 12.6178 920.271 12.0695 916.542 12.0695H889.892V39.5975H915.116ZM878.979 2.69238H916.268C922.41 2.69238 927.473 3.58805 931.458 5.37939C939.025 8.81583 942.809 15.1586 942.809 24.4078C942.809 29.2334 941.804 33.1816 939.793 36.2525C937.819 39.3234 935.04 41.791 931.458 43.6555C934.602 44.935 936.96 46.6167 938.532 48.7005C940.14 50.7843 941.036 54.1659 941.219 58.8453L941.603 69.6481C941.712 72.719 941.968 75.0038 942.37 76.5027C943.028 79.0618 944.198 80.7069 945.88 81.438V83.2476H932.5C932.134 82.553 931.842 81.6574 931.622 80.5606C931.403 79.4639 931.22 77.3436 931.074 74.1996L930.416 60.7646C930.16 55.5002 928.204 51.9724 924.548 50.1811C922.465 49.194 919.193 48.7005 914.733 48.7005H889.892V83.2476H878.979V2.69238Z" fill="black"/>
<path d="M849.719 50.2359L837.49 14.6468L824.494 50.2359H849.719ZM831.787 2.69238H844.125L873.353 83.2476H861.399L853.228 59.1195H821.368L812.649 83.2476H801.462L831.787 2.69238Z" fill="black"/>
<path d="M720.619 2.69238H779.349V12.563H731.257V37.0202H775.73V46.3425H731.257V73.6512H780.171V83.2476H720.619V2.69238Z" fill="black"/>
<path d="M624.459 2.69238L639.648 68.2224L657.854 2.69238H669.699L687.905 68.2224L703.095 2.69238H715.049L693.882 83.2476H682.421L663.831 16.4564L645.132 83.2476H633.671L612.614 2.69238H624.459Z" fill="black"/>
<path d="M568.899 71.2935H580.36V83.2479H568.899V71.2935Z" fill="black"/>
<path d="M499.609 2.69238H558.339V12.563H510.247V37.0202H554.72V46.3425H510.247V73.6512H559.162V83.2476H499.609V2.69238Z" fill="black"/>
<path d="M434.865 2.69238V52.4842C434.865 58.3335 435.962 63.1956 438.155 67.0708C441.409 72.92 446.893 75.8447 454.606 75.8447C463.855 75.8447 470.143 72.6824 473.47 66.3579C475.261 62.9215 476.157 58.2969 476.157 52.4842V2.69238H487.234V47.9327C487.234 57.8399 485.9 65.4622 483.231 70.7997C478.332 80.5241 469.083 85.3863 455.484 85.3863C441.884 85.3863 432.653 80.5241 427.791 70.7997C425.122 65.4622 423.788 57.8399 423.788 47.9327V2.69238H434.865Z" fill="black"/>
<path d="M414.927 83.0284L409.443 89.6637L396.995 80.1769C393.997 81.822 390.744 83.1381 387.234 84.1251C383.761 85.1122 379.959 85.6057 375.828 85.6057C363.325 85.6057 353.528 81.5113 346.435 73.3223C340.184 65.3527 337.058 55.3724 337.058 43.3814C337.058 32.4872 339.764 23.1649 345.174 15.4146C352.12 5.47089 362.393 0.499023 375.992 0.499023C390.213 0.499023 400.742 5.06876 407.578 14.2082C412.916 21.337 415.585 30.4582 415.585 41.5718C415.585 46.763 414.945 51.7532 413.665 56.5422C411.728 63.8538 408.456 69.8127 403.85 74.419L414.927 83.0284ZM377.144 75.8448C379.411 75.8448 381.531 75.6985 383.505 75.4061C385.479 75.0771 387.197 74.4556 388.66 73.5416L379.831 66.6322L385.315 59.8873L395.843 68.058C399.17 64.2559 401.418 59.9969 402.588 55.281C403.795 50.565 404.398 46.0501 404.398 41.7363C404.398 32.2678 401.912 24.6455 396.94 18.8694C392.005 13.0932 385.242 10.2051 376.651 10.2051C367.95 10.2051 361.059 12.9835 355.977 18.5403C350.896 24.0606 348.355 32.5785 348.355 44.0943C348.355 53.7821 350.786 61.4958 355.648 67.2354C360.547 72.975 367.712 75.8448 377.144 75.8448Z" fill="black"/>
<path d="M318.053 2.69238H329.076V83.2476H318.053V2.69238Z" fill="black"/>
<path d="M240.044 2.69238H252.93L293.619 67.9482V2.69238H303.984V83.2476H291.755L250.463 18.0467V83.2476H240.044V2.69238Z" fill="black"/>
<path d="M176.345 2.69238V52.4842C176.345 58.3335 177.442 63.1956 179.636 67.0708C182.889 72.92 188.373 75.8447 196.087 75.8447C205.336 75.8447 211.624 72.6824 214.951 66.3579C216.742 62.9215 217.638 58.2969 217.638 52.4842V2.69238H228.715V47.9327C228.715 57.8399 227.38 65.4622 224.712 70.7997C219.813 80.5241 210.564 85.3863 196.964 85.3863C183.365 85.3863 174.134 80.5241 169.272 70.7997C166.603 65.4622 165.268 57.8399 165.268 47.9327V2.69238H176.345Z" fill="black"/>
<path d="M70.6074 2.69238H129.338V12.563H81.2458V37.0202H125.718V46.3425H81.2458V73.6512H130.16V83.2476H70.6074V2.69238Z" fill="black"/>
<path d="M30.5441 36.746C35.1504 36.746 38.7331 36.1063 41.2921 34.8267C45.3135 32.8161 47.3242 29.1968 47.3242 23.9691C47.3242 18.7047 45.1855 15.1586 40.9082 13.3307C38.4954 12.3071 34.9128 11.7953 30.1602 11.7953H10.6932V36.746H30.5441ZM34.2182 73.9254C40.9082 73.9254 45.6791 71.9878 48.5306 68.1127C50.3219 65.6633 51.2176 62.7021 51.2176 59.2291C51.2176 53.3799 48.6037 49.3951 43.3759 47.2747C40.5975 46.1414 36.9234 45.5748 32.3537 45.5748H10.6932V73.9254H34.2182ZM0 2.69238H34.602C44.0339 2.69238 50.7423 5.50734 54.7271 11.1372C57.0668 14.464 58.2367 18.3026 58.2367 22.653C58.2367 27.7345 56.7926 31.9021 53.9046 35.1558C52.4057 36.874 50.2488 38.446 47.4338 39.8717C51.5649 41.4437 54.654 43.2168 56.7012 45.1909C60.3205 48.7005 62.1301 53.5444 62.1301 59.7227C62.1301 64.9139 60.5033 69.6116 57.2496 73.8157C52.3874 80.1037 44.6554 83.2476 34.0536 83.2476H0V2.69238Z" fill="black"/>
</svg>
