<svg width="649" height="189" viewBox="0 0 649 189" fill="none" xmlns="http://www.w3.org/2000/svg">
<path d="M67.7445 0.562723V10.3834H39.9661V83H28.6303V10.3834H0.851893V0.562723H67.7445ZM71.3989 0.562723H82.6786V34.6263H125.553V0.562723H136.832V83H125.553V44.447H82.6786V83H71.3989V0.562723ZM148.343 0.562723H208.446V10.664H159.23V35.6926H204.742V45.2326H159.23V73.1794H209.287V83H148.343V0.562723ZM273.107 35.412C277.821 35.412 281.487 34.7573 284.106 33.4478C288.221 31.3902 290.279 27.6864 290.279 22.3365C290.279 16.9492 288.091 13.3202 283.713 11.4496C281.244 10.4021 277.578 9.8783 272.714 9.8783H252.792V35.412H273.107ZM276.867 73.4599C283.713 73.4599 288.596 71.4771 291.514 67.5114C293.347 65.0048 294.264 61.9745 294.264 58.4203C294.264 52.4344 291.589 48.3565 286.239 46.1866C283.395 45.0269 279.635 44.447 274.959 44.447H252.792V73.4599H276.867ZM241.849 0.562723H277.26C286.912 0.562723 293.777 3.44344 297.855 9.20489C300.249 12.6094 301.447 16.5376 301.447 20.9897C301.447 26.1899 299.969 30.4549 297.013 33.7846C295.479 35.5429 293.272 37.1516 290.391 38.6107C294.619 40.2194 297.78 42.0339 299.875 44.0541C303.579 47.6457 305.431 52.6028 305.431 58.9254C305.431 64.2379 303.766 69.0453 300.436 73.3477C295.461 79.7826 287.548 83 276.699 83H241.849V0.562723ZM350.22 38.3301C355.458 38.3301 359.592 37.2826 362.622 35.1875C365.69 33.0924 367.224 29.3138 367.224 23.8517C367.224 17.978 365.091 13.9749 360.826 11.8424C358.544 10.7201 355.495 10.1589 351.679 10.1589H324.406V38.3301H350.22ZM313.238 0.562723H351.398C357.684 0.562723 362.865 1.47932 366.943 3.3125C374.687 6.82923 378.559 13.3202 378.559 22.7854C378.559 27.7238 377.531 31.7643 375.473 34.9069C373.453 38.0495 370.609 40.5748 366.943 42.4828C370.16 43.7923 372.573 45.5132 374.182 47.6457C375.828 49.7782 376.745 53.2388 376.932 58.0275L377.325 69.0827C377.437 72.2254 377.699 74.5636 378.11 76.0975C378.784 78.7163 379.981 80.3999 381.702 81.1481V83H368.009C367.635 82.2892 367.336 81.3726 367.111 80.2502C366.887 79.1279 366.7 76.958 366.55 73.7405L365.877 59.9916C365.615 54.6043 363.613 50.9941 359.872 49.1609C357.74 48.1507 354.391 47.6457 349.827 47.6457H324.406V83H313.238V0.562723ZM430.363 49.217L417.849 12.7964L404.549 49.217H430.363ZM412.012 0.562723H424.639L454.55 83H442.316L433.955 58.3081H401.35L392.427 83H380.979L412.012 0.562723ZM457.811 0.562723H470.999L512.639 67.3431V0.562723H523.245V83H510.731L468.474 16.2758V83H457.811V0.562723ZM565.621 73.4599C569.399 73.4599 572.505 73.0671 574.936 72.2815C579.276 70.8224 582.83 68.0165 585.599 63.8638C587.806 60.5341 589.396 56.2691 590.369 51.0689C590.93 47.9637 591.211 45.083 591.211 42.4267C591.211 32.2133 589.172 24.2819 585.094 18.6327C581.053 12.9835 574.525 10.1589 565.509 10.1589H545.699V73.4599H565.621ZM534.475 0.562723H567.865C579.201 0.562723 587.993 4.58451 594.241 12.6281C599.815 19.886 602.602 29.1829 602.602 40.5187C602.602 49.2731 600.956 57.1857 597.664 64.2566C591.865 76.7522 581.895 83 567.753 83H534.475V0.562723ZM8.82064 103.563H68.923V113.664H19.7075V138.693H65.2192V148.233H19.7075V176.179H69.7647V186H8.82064V103.563ZM84.0254 103.563L107.707 173.766L131.108 103.563H143.623L113.543 186H101.703L71.6795 103.563H84.0254ZM181.06 152.217L168.546 115.796L155.246 152.217H181.06ZM162.71 103.563H175.336L205.247 186H193.013L184.652 161.308H152.047L143.124 186H131.676L162.71 103.563ZM208.509 103.563H221.696L263.336 170.343V103.563H273.942V186H261.428L219.171 119.276V186H208.509V103.563ZM320.302 101.43C328.047 101.43 334.743 102.927 340.392 105.92C348.586 110.222 353.599 117.761 355.432 128.535H344.377C343.03 122.512 340.243 118.135 336.015 115.404C331.788 112.635 326.457 111.251 320.022 111.251C312.39 111.251 305.955 114.113 300.717 119.837C295.517 125.561 292.917 134.091 292.917 145.427C292.917 155.229 295.068 163.216 299.37 169.389C303.673 175.525 310.687 178.592 320.414 178.592C327.859 178.592 334.014 176.441 338.877 172.139C343.778 167.799 346.285 160.803 346.397 151.151H320.583V141.891H356.779V186H349.596L346.902 175.394C343.124 179.546 339.775 182.427 336.857 184.036C331.956 186.804 325.727 188.189 318.17 188.189C308.405 188.189 300.006 185.027 292.973 178.705C285.303 170.773 281.469 159.886 281.469 146.044C281.469 132.239 285.21 121.259 292.692 113.103C299.8 105.321 309.004 101.43 320.302 101.43ZM368.29 103.563H428.392V113.664H379.177V138.693H424.688V148.233H379.177V176.179H429.234V186H368.29V103.563ZM436.985 103.563H448.152V176.179H489.904V186H436.985V103.563ZM496.589 103.563H507.869V186H496.589V103.563ZM526.45 159.4C526.712 164.077 527.816 167.874 529.761 170.792C533.465 176.254 539.994 178.985 549.347 178.985C553.537 178.985 557.353 178.387 560.795 177.189C567.454 174.87 570.784 170.717 570.784 164.731C570.784 160.242 569.381 157.043 566.575 155.135C563.731 153.265 559.279 151.637 553.219 150.253L542.051 147.728C534.756 146.081 529.593 144.267 526.563 142.284C521.325 138.842 518.706 133.698 518.706 126.852C518.706 119.444 521.269 113.365 526.394 108.613C531.52 103.862 538.778 101.486 548.168 101.486C556.81 101.486 564.143 103.581 570.166 107.772C576.227 111.924 579.257 118.584 579.257 127.75H568.763C568.202 123.335 567.005 119.949 565.172 117.592C561.767 113.29 555.987 111.139 547.831 111.139C541.247 111.139 536.514 112.523 533.634 115.291C530.753 118.06 529.312 121.277 529.312 124.944C529.312 128.984 530.996 131.94 534.363 133.81C536.57 135.007 541.565 136.504 549.347 138.3L560.907 140.937C566.481 142.209 570.784 143.949 573.814 146.156C579.052 150.01 581.67 155.603 581.67 162.936C581.67 172.064 578.341 178.592 571.682 182.521C565.06 186.449 557.353 188.413 548.561 188.413C538.31 188.413 530.285 185.794 524.486 180.557C518.687 175.356 515.844 168.304 515.956 159.4H526.45ZM648.907 103.563V113.383H621.128V186H609.792V113.383H582.014V103.563H648.907Z" fill="black"/>
</svg>
