<svg width="176" height="85" viewBox="0 0 176 85" fill="none" xmlns="http://www.w3.org/2000/svg">
<path d="M5.2225 24.8906C5.33187 26.8438 5.79281 28.4297 6.60531 29.6484C8.15219 31.9297 10.8787 33.0703 14.785 33.0703C16.535 33.0703 18.1287 32.8203 19.5662 32.3203C22.3475 31.3516 23.7381 29.6172 23.7381 27.1172C23.7381 25.2422 23.1522 23.9062 21.9803 23.1094C20.7928 22.3281 18.9334 21.6484 16.4022 21.0703L11.7381 20.0156C8.69125 19.3281 6.535 18.5703 5.26937 17.7422C3.08187 16.3047 1.98812 14.1562 1.98812 11.2969C1.98812 8.20312 3.05844 5.66406 5.19906 3.67969C7.33969 1.69531 10.3709 0.703125 14.2928 0.703125C17.9022 0.703125 20.9647 1.57812 23.4803 3.32812C26.0116 5.0625 27.2772 7.84375 27.2772 11.6719H22.8944C22.66 9.82812 22.16 8.41406 21.3944 7.42969C19.9725 5.63281 17.5584 4.73438 14.1522 4.73438C11.4022 4.73438 9.42562 5.3125 8.2225 6.46875C7.01937 7.625 6.41781 8.96875 6.41781 10.5C6.41781 12.1875 7.12094 13.4219 8.52719 14.2031C9.44906 14.7031 11.535 15.3281 14.785 16.0781L19.6131 17.1797C21.9412 17.7109 23.7381 18.4375 25.0037 19.3594C27.1912 20.9688 28.285 23.3047 28.285 26.3672C28.285 30.1797 26.8944 32.9062 24.1131 34.5469C21.3475 36.1875 18.1287 37.0078 14.4569 37.0078C10.1756 37.0078 6.82406 35.9141 4.40219 33.7266C1.98031 31.5547 0.792812 28.6094 0.839687 24.8906H5.2225ZM31.7566 1.57031H47.2487C50.3112 1.57031 52.78 2.4375 54.655 4.17188C56.53 5.89062 57.4675 8.3125 57.4675 11.4375C57.4675 14.125 56.6316 16.4688 54.9597 18.4688C53.2878 20.4531 50.7175 21.4453 47.2487 21.4453H36.4206V36H31.7566V1.57031ZM52.7566 11.4609C52.7566 8.92969 51.8191 7.21094 49.9441 6.30469C48.9128 5.82031 47.4987 5.57812 45.7019 5.57812H36.4206V17.5078H45.7019C47.7956 17.5078 49.4909 17.0625 50.7878 16.1719C52.1003 15.2812 52.7566 13.7109 52.7566 11.4609ZM61.5016 1.57031H66.2125V36H61.5016V1.57031ZM86.9341 17.3438C89.1216 17.3438 90.8481 16.9062 92.1137 16.0312C93.395 15.1562 94.0356 13.5781 94.0356 11.2969C94.0356 8.84375 93.145 7.17188 91.3637 6.28125C90.4106 5.8125 89.1372 5.57812 87.5434 5.57812H76.1528V17.3438H86.9341ZM71.4887 1.57031H87.4262C90.0512 1.57031 92.2153 1.95312 93.9184 2.71875C97.1528 4.1875 98.77 6.89844 98.77 10.8516C98.77 12.9141 98.3403 14.6016 97.4809 15.9141C96.6372 17.2266 95.4497 18.2812 93.9184 19.0781C95.2622 19.625 96.27 20.3438 96.9419 21.2344C97.6294 22.125 98.0122 23.5703 98.0903 25.5703L98.2544 30.1875C98.3012 31.5 98.4106 32.4766 98.5825 33.1172C98.8637 34.2109 99.3637 34.9141 100.082 35.2266V36H94.3637C94.2075 35.7031 94.0825 35.3203 93.9887 34.8516C93.895 34.3828 93.8169 33.4766 93.7544 32.1328L93.4731 26.3906C93.3637 24.1406 92.5278 22.6328 90.9653 21.8672C90.0747 21.4453 88.6762 21.2344 86.77 21.2344H76.1528V36H71.4887V1.57031ZM103.788 1.57031H108.499V36H103.788V1.57031ZM138.268 1.57031V5.67188H126.666V36H121.932V5.67188H110.33V1.57031H138.268ZM1.18094 49.5703H26.2825V53.7891H5.72781V64.2422H24.7356V68.2266H5.72781V79.8984H26.6341V84H1.18094V49.5703ZM32.8244 84H27.1994L39.5275 66.3516L27.9728 49.5703H33.8088L42.5978 62.7422L51.3166 49.5703H56.8713L45.3166 66.3516L57.4338 84H51.6447L42.3634 69.8438L32.8244 84ZM73.5147 48.6328C77.8741 48.6328 81.2569 49.7812 83.6631 52.0781C86.0694 54.375 87.4053 56.9844 87.6709 59.9062H83.1241C82.6084 57.6875 81.5772 55.9297 80.0303 54.6328C78.4991 53.3359 76.3428 52.6875 73.5616 52.6875C70.1709 52.6875 67.4287 53.8828 65.335 56.2734C63.2569 58.6484 62.2178 62.2969 62.2178 67.2188C62.2178 71.25 63.1553 74.5234 65.0303 77.0391C66.9209 79.5391 69.7334 80.7891 73.4678 80.7891C76.9053 80.7891 79.5225 79.4688 81.3194 76.8281C82.2725 75.4375 82.9834 73.6094 83.4522 71.3438H87.9991C87.5928 74.9688 86.2491 78.0078 83.9678 80.4609C81.2334 83.4141 77.5459 84.8906 72.9053 84.8906C68.9053 84.8906 65.5459 83.6797 62.8272 81.2578C59.2491 78.0547 57.46 73.1094 57.46 66.4219C57.46 61.3438 58.8037 57.1797 61.4912 53.9297C64.3975 50.3984 68.4053 48.6328 73.5147 48.6328ZM91.2597 49.5703H116.361V53.7891H95.8066V64.2422H114.814V68.2266H95.8066V79.8984H116.713V84H91.2597V49.5703ZM122.997 72.8906C123.106 74.8438 123.567 76.4297 124.38 77.6484C125.927 79.9297 128.653 81.0703 132.559 81.0703C134.309 81.0703 135.903 80.8203 137.341 80.3203C140.122 79.3516 141.512 77.6172 141.512 75.1172C141.512 73.2422 140.927 71.9062 139.755 71.1094C138.567 70.3281 136.708 69.6484 134.177 69.0703L129.512 68.0156C126.466 67.3281 124.309 66.5703 123.044 65.7422C120.856 64.3047 119.762 62.1562 119.762 59.2969C119.762 56.2031 120.833 53.6641 122.973 51.6797C125.114 49.6953 128.145 48.7031 132.067 48.7031C135.677 48.7031 138.739 49.5781 141.255 51.3281C143.786 53.0625 145.052 55.8438 145.052 59.6719H140.669C140.434 57.8281 139.934 56.4141 139.169 55.4297C137.747 53.6328 135.333 52.7344 131.927 52.7344C129.177 52.7344 127.2 53.3125 125.997 54.4688C124.794 55.625 124.192 56.9688 124.192 58.5C124.192 60.1875 124.895 61.4219 126.302 62.2031C127.223 62.7031 129.309 63.3281 132.559 64.0781L137.387 65.1797C139.716 65.7109 141.512 66.4375 142.778 67.3594C144.966 68.9688 146.059 71.3047 146.059 74.3672C146.059 78.1797 144.669 80.9062 141.887 82.5469C139.122 84.1875 135.903 85.0078 132.231 85.0078C127.95 85.0078 124.598 83.9141 122.177 81.7266C119.755 79.5547 118.567 76.6094 118.614 72.8906H122.997ZM152.132 72.8906C152.242 74.8438 152.703 76.4297 153.515 77.6484C155.062 79.9297 157.789 81.0703 161.695 81.0703C163.445 81.0703 165.039 80.8203 166.476 80.3203C169.257 79.3516 170.648 77.6172 170.648 75.1172C170.648 73.2422 170.062 71.9062 168.89 71.1094C167.703 70.3281 165.843 69.6484 163.312 69.0703L158.648 68.0156C155.601 67.3281 153.445 66.5703 152.179 65.7422C149.992 64.3047 148.898 62.1562 148.898 59.2969C148.898 56.2031 149.968 53.6641 152.109 51.6797C154.25 49.6953 157.281 48.7031 161.203 48.7031C164.812 48.7031 167.875 49.5781 170.39 51.3281C172.922 53.0625 174.187 55.8438 174.187 59.6719H169.804C169.57 57.8281 169.07 56.4141 168.304 55.4297C166.882 53.6328 164.468 52.7344 161.062 52.7344C158.312 52.7344 156.336 53.3125 155.132 54.4688C153.929 55.625 153.328 56.9688 153.328 58.5C153.328 60.1875 154.031 61.4219 155.437 62.2031C156.359 62.7031 158.445 63.3281 161.695 64.0781L166.523 65.1797C168.851 65.7109 170.648 66.4375 171.914 67.3594C174.101 68.9688 175.195 71.3047 175.195 74.3672C175.195 78.1797 173.804 80.9062 171.023 82.5469C168.257 84.1875 165.039 85.0078 161.367 85.0078C157.086 85.0078 153.734 83.9141 151.312 81.7266C148.89 79.5547 147.703 76.6094 147.75 72.8906H152.132Z" fill="black"/>
</svg>
