<svg width="105" height="11" viewBox="0 0 105 11" fill="none" xmlns="http://www.w3.org/2000/svg">
<path d="M97.3074 10.6487V10.6987H97.3574H103.911H103.961V10.6487V9.87147V9.82147H103.911H98.3187V6.08878H103.24H103.29V6.03878V5.26152V5.21152H103.24H98.3187V1.82726H103.777H103.827V1.77726V1V0.95H103.777H97.3574H97.3074V1V10.6487Z" fill="black" stroke="black" stroke-width="0.1"/>
<path d="M87.8336 0.95H87.7836V1V7.01706C87.7836 8.25803 88.0939 9.22752 88.7212 9.91848C89.3503 10.6114 90.3041 10.9534 91.5725 10.9534C92.8316 10.9534 93.7808 10.6204 94.4099 9.94577C95.0467 9.26347 95.3614 8.28461 95.3614 7.01706V1V0.95H95.3114H94.4001H94.3501V1V6.74904C94.3501 7.31814 94.3012 7.80997 94.204 8.22515C94.1071 8.63915 93.9491 8.98498 93.7311 9.26412C93.5139 9.53337 93.2267 9.73829 92.868 9.87836C92.5179 10.0096 92.0865 10.0761 91.5725 10.0761C90.5889 10.0761 89.8867 9.81479 89.4531 9.30311C89.0179 8.78962 88.7949 7.94223 88.7949 6.74904V1V0.95H88.7449H87.8336Z" fill="black" stroke="black" stroke-width="0.1"/>
<path d="M80.5918 10.6487V10.6987H80.6418H86.7258H86.7758V10.6487V9.87147V9.82147H86.7258H81.603V1V0.95H81.553H80.6418H80.5918V1V10.6487Z" fill="black" stroke="black" stroke-width="0.1"/>
<path d="M72.6646 9.82147V9.87147H74.933C75.4333 9.87147 75.8666 9.84914 76.2329 9.80447C76.6081 9.7598 76.9164 9.67046 77.1576 9.53645M72.6646 9.82147H74.933C75.432 9.82147 75.8631 9.79919 76.2269 9.75484L76.227 9.75482C76.5977 9.71069 76.8989 9.62281 77.1327 9.49308M72.6646 9.82147H72.6146V6.08878H72.6646M72.6646 9.82147V6.08878M77.1327 9.49308C77.1325 9.4932 77.1323 9.49331 77.1321 9.49343L77.1576 9.53645M77.1327 9.49308C77.1329 9.49297 77.1331 9.49285 77.1333 9.49274L77.1576 9.53645M77.1327 9.49308C77.3651 9.35522 77.5366 9.16638 77.6483 8.92575L77.6486 8.92506C77.7693 8.67514 77.8312 8.34389 77.8312 7.92833C77.8312 7.53117 77.7649 7.2189 77.6365 6.98773L77.6361 6.98707L77.6361 6.98706C77.5068 6.7456 77.3218 6.56064 77.0804 6.43128C76.8367 6.30074 76.5435 6.21286 76.1998 6.16878L76.1985 6.16862L76.1985 6.16861C75.8531 6.11546 75.467 6.08878 75.0402 6.08878H72.6646M77.1576 9.53645C77.3988 9.3935 77.5775 9.19695 77.6936 8.9468C77.8187 8.68772 77.8812 8.34822 77.8812 7.92833C77.8812 7.52629 77.8142 7.20467 77.6802 6.96345C77.5462 6.7133 77.3541 6.52122 77.104 6.38721C76.8538 6.2532 76.5545 6.16386 76.2061 6.11919C75.8577 6.06558 75.4691 6.03878 75.0402 6.03878H72.6646V6.08878M77.2583 4.1983L77.2583 4.19829L77.2579 4.19931C77.1809 4.41335 77.0482 4.59794 76.8584 4.75335C76.6689 4.89964 76.4169 5.01322 76.1002 5.09241C75.7838 5.1715 75.3906 5.21152 74.9196 5.21152H72.6646V1.82726H74.7186C75.2171 1.82726 75.6337 1.85844 75.9692 1.92024L75.9692 1.92026L75.9707 1.92048C76.3149 1.97344 76.5892 2.0656 76.7961 2.19489L76.7961 2.19491L76.7974 2.19568C77.0034 2.31585 77.1524 2.47801 77.2461 2.68256L77.2461 2.68256L77.2465 2.6833C77.3407 2.88019 77.389 3.12692 77.389 3.42558C77.389 3.71538 77.3451 3.97269 77.2583 4.1983ZM71.6534 10.6487V10.6987H71.7034H75.6433C76.1021 10.6987 76.5259 10.6537 76.9143 10.5634L76.9151 10.5632C77.3139 10.4635 77.6554 10.3045 77.9387 10.0852C78.2227 9.86533 78.442 9.5771 78.5969 9.22187C78.7614 8.8653 78.8425 8.43352 78.8425 7.92833C78.8425 7.27632 78.6748 6.72905 78.3365 6.28996C78.0351 5.88826 77.5869 5.62992 76.9974 5.51142C77.1342 5.4743 77.2665 5.42377 77.3944 5.35985L77.3944 5.35986L77.3952 5.35942C77.5883 5.2583 77.7583 5.12497 77.9052 4.95972L77.9052 4.95973L77.9061 4.9587C78.0533 4.78391 78.1721 4.5732 78.2632 4.32742L78.2634 4.32687C78.3551 4.07005 78.4003 3.76929 78.4003 3.42558C78.4003 3.06284 78.3413 2.73051 78.2227 2.42921C78.1034 2.11736 77.9107 1.85141 77.6454 1.6318C77.3886 1.41179 77.0558 1.24374 76.6488 1.12618C76.241 1.00837 75.7537 0.95 75.1876 0.95H71.7034H71.6534V1V10.6487Z" fill="black" stroke="black" stroke-width="0.1"/>
<path d="M68.205 10.6485V10.6985H68.255H69.2333H69.2833V10.6485V9.46924V9.41924H69.2333H68.255H68.205V9.46924V10.6485Z" fill="black" stroke="black" stroke-width="0.1"/>
<path d="M61.0445 5.20633L61.0446 5.20626C60.8808 5.06981 60.7437 4.92371 60.6337 4.76786C60.5231 4.61116 60.4403 4.43627 60.3853 4.24352L60.3845 4.24088L60.3846 4.24086C60.3388 4.03952 60.3163 3.79433 60.3163 3.50613C60.3163 3.17679 60.3896 2.86537 60.536 2.5725C60.6819 2.28082 60.878 2.02989 61.1242 1.82008C61.3703 1.60137 61.6572 1.43304 61.9843 1.31494L61.9847 1.31479L61.9847 1.31479C62.3212 1.19657 62.6799 1.14216 63.0605 1.15115C63.4219 1.1512 63.7743 1.19639 64.1178 1.28677C64.4714 1.37746 64.7852 1.51827 65.0586 1.70963C65.333 1.90173 65.5525 2.14875 65.7169 2.45003M61.0445 5.20633L65.6731 2.47425M61.0445 5.20633L61.0469 5.20811C61.1972 5.3188 61.3714 5.4362 61.5694 5.56029M61.0445 5.20633L61.5694 5.56029M65.7169 2.45003C65.7169 2.45012 65.717 2.45021 65.717 2.45031L65.6731 2.47425M65.7169 2.45003C65.7168 2.44993 65.7168 2.44983 65.7167 2.44974L65.6731 2.47425M65.7169 2.45003C65.8826 2.74486 65.9644 3.09757 65.9644 3.50613C65.9644 4.00432 65.8602 4.43327 65.6494 4.79081M65.6731 2.47425C65.8339 2.76014 65.9144 3.1041 65.9144 3.50613C65.9144 3.9975 65.8116 4.4174 65.6061 4.76582M65.6494 4.79081C65.6495 4.79067 65.6496 4.79053 65.6497 4.79039L65.6061 4.76582M65.6494 4.79081C65.4618 5.1233 65.1609 5.39819 64.7506 5.61689M65.6494 4.79081C65.6494 4.79095 65.6493 4.79108 65.6492 4.79122L65.6061 4.76582M65.6061 4.76582L64.7506 5.61689M64.7506 5.61689C65.2274 5.8091 65.607 6.10067 65.8878 6.49193C66.1983 6.91216 66.353 7.40514 66.353 7.96867C66.353 8.43881 66.2716 8.85681 66.1076 9.22159M61.5694 5.56029C61.069 5.77064 60.68 6.09087 60.4046 6.5212L60.4045 6.52143C60.122 6.96788 59.9813 7.47762 59.9813 8.04907C59.9813 8.5201 60.0719 8.93469 60.2548 9.29138C60.4363 9.64525 60.6682 9.94102 60.9506 10.1779L60.9513 10.1784C61.2418 10.4145 61.5643 10.5917 61.9184 10.7097L61.9188 10.7098C62.2806 10.8274 62.6343 10.8865 62.9795 10.8865C63.484 10.8865 63.9446 10.8234 64.361 10.6967C64.7774 10.57 65.1319 10.384 65.4237 10.1379C65.4238 10.1378 65.4239 10.1377 65.424 10.1376L61.5694 5.56029ZM61.5764 6.56073L61.5764 6.56075L61.5775 6.5599C61.7773 6.39485 62.0123 6.27281 62.2832 6.19415C62.555 6.11523 62.854 6.07552 63.1805 6.07552C63.4889 6.07552 63.779 6.11516 64.0511 6.19415C64.322 6.27281 64.557 6.39485 64.7568 6.5599L64.7568 6.55992L64.7579 6.56073C64.9568 6.71639 65.1127 6.91546 65.2258 7.15886L65.2258 7.15886L65.2261 7.15949C65.3383 7.39255 65.3953 7.6707 65.3953 7.99547C65.3953 8.30183 65.3385 8.58065 65.2255 8.83268L65.2255 8.83267L65.2249 8.83401C65.1205 9.08638 64.9684 9.30363 64.7684 9.48626L64.7684 9.48625L64.7676 9.48701C64.5761 9.6698 64.3495 9.81376 64.0873 9.91873C63.8255 10.0146 63.5413 10.0628 63.2342 10.0628C62.8819 10.0628 62.5618 10.01 62.2733 9.90513C61.9928 9.79993 61.7528 9.66014 61.5525 9.48622C61.3611 9.30333 61.2088 9.09009 61.0955 8.84615C60.9913 8.60291 60.939 8.33742 60.939 8.04907C60.939 7.70606 60.9962 7.41432 61.1085 7.17226L61.1085 7.17226L61.1088 7.17166C61.2219 6.91932 61.3779 6.7161 61.5764 6.56073ZM64.8632 4.2773L64.8632 4.27729L64.8626 4.27884C64.7756 4.50502 64.6545 4.69055 64.4997 4.83668C64.3449 4.98292 64.1597 5.09081 63.9434 5.16016C63.7252 5.22117 63.4889 5.25186 63.2342 5.25186C62.9794 5.25186 62.7338 5.22116 62.4971 5.15987C62.261 5.08984 62.052 4.9895 61.8695 4.85915C61.6883 4.72972 61.5415 4.56589 61.429 4.3671C61.3263 4.16127 61.274 3.91502 61.274 3.62674C61.274 3.35573 61.3221 3.11735 61.4169 2.91051C61.5122 2.70258 61.6416 2.53012 61.8052 2.39229C61.9785 2.25371 62.1782 2.14948 62.4046 2.0798C62.6317 2.00994 62.8768 1.97481 63.1403 1.97481C63.7872 1.97481 64.2555 2.10797 64.5551 2.3648L64.5551 2.36481L64.5558 2.36534C64.8548 2.61311 65.0067 2.96847 65.0067 3.43912C65.0067 3.77411 64.9582 4.05292 64.8632 4.2773Z" fill="black" stroke="black" stroke-width="0.1"/>
<path d="M54.0863 10.4904L54.0859 10.4902C53.6675 10.2264 53.3357 9.87167 53.0905 9.42672L53.0899 9.42567L53.0899 9.42566C52.8547 8.97339 52.6924 8.45431 52.6024 7.86908L52.6024 7.86897C52.5126 7.27663 52.4678 6.6532 52.4678 5.99874C52.4678 5.39791 52.5082 4.81041 52.5889 4.23624C52.67 3.65992 52.8232 3.14536 53.0493 2.69313L53.0495 2.69278L53.0495 2.69278C53.2857 2.22957 53.6176 1.85667 54.0448 1.57486C54.4753 1.29094 55.0352 1.15117 55.7207 1.15117C56.19 1.15117 56.5987 1.22332 56.9456 1.36929M54.0863 10.4904L56.9268 1.41559M54.0863 10.4904C54.5162 10.7557 55.0621 10.8865 55.7207 10.8865C56.3791 10.8865 56.9208 10.7557 57.342 10.4902C57.7604 10.2264 58.088 9.87152 58.3242 9.42636C58.5686 8.98284 58.7354 8.47248 58.8255 7.896C58.9153 7.32147 58.9601 6.7203 58.9601 6.09254C58.9601 5.72503 58.9467 5.34864 58.9198 4.96338C58.8928 4.57687 58.8389 4.20364 58.7579 3.84373C58.6768 3.47421 58.5596 3.12688 58.4061 2.80187C58.2609 2.47518 58.0655 2.1889 57.8201 1.94341M54.0863 10.4904L57.7844 1.97843M56.9456 1.36929C56.9458 1.36936 56.946 1.36943 56.9462 1.36951L56.9268 1.41559M56.9456 1.36929C56.9455 1.36922 56.9453 1.36915 56.9451 1.36908L56.9268 1.41559M56.9456 1.36929C57.2908 1.50561 57.5826 1.69687 57.8201 1.94341M56.9268 1.41559C57.2663 1.5496 57.5521 1.73721 57.7844 1.97843M57.8201 1.94341C57.82 1.9433 57.8199 1.94319 57.8198 1.94308L57.7844 1.97843M57.8201 1.94341C57.8202 1.94352 57.8203 1.94364 57.8204 1.94375L57.7844 1.97843M57.9089 4.51665L57.9089 4.51665L57.909 4.51765C57.9713 4.99786 58.0024 5.49155 58.0024 5.99874C58.0024 6.47035 57.9757 6.95097 57.9223 7.44062C57.8692 7.92809 57.7629 8.36568 57.6041 8.75381C57.4463 9.13953 57.2146 9.45406 56.9089 9.69857L56.9084 9.69902C56.6159 9.93987 56.2218 10.0628 55.7207 10.0628C55.2722 10.0628 54.9024 9.9706 54.6086 9.78934C54.3219 9.59804 54.0909 9.33251 53.9158 8.99115C53.7401 8.64853 53.6119 8.23404 53.5321 7.7467C53.4611 7.24928 53.4255 6.69794 53.4255 6.09254C53.4255 5.57654 53.4566 5.06951 53.5189 4.57146C53.5898 4.07496 53.7094 3.6328 53.877 3.24455C54.0439 2.85799 54.2715 2.55239 54.5589 2.32593L54.5591 2.32581C54.8522 2.09306 55.2291 1.97483 55.6939 1.97483C56.1866 1.97483 56.5769 2.08916 56.8696 2.31297L56.8696 2.31298L56.8701 2.31339C57.1754 2.54012 57.4113 2.84124 57.5779 3.21813C57.7452 3.59685 57.8558 4.0295 57.9089 4.51665Z" fill="black" stroke="black" stroke-width="0.1"/>
<path d="M46.6398 10.4904L46.6394 10.4902C46.2211 10.2264 45.8892 9.87167 45.644 9.42672L45.6435 9.42567L45.6435 9.42566C45.4083 8.97339 45.246 8.45431 45.156 7.86908L45.156 7.86897C45.0662 7.27663 45.0214 6.6532 45.0214 5.99874C45.0214 5.39791 45.0617 4.81041 45.1425 4.23624C45.2235 3.65992 45.3768 3.14536 45.6029 2.69313L45.6031 2.69278L45.6031 2.69278C45.8392 2.22957 46.1711 1.85667 46.5984 1.57486C47.0288 1.29094 47.5888 1.15117 48.2742 1.15117C48.7435 1.15117 49.1523 1.22332 49.4992 1.36929M46.6398 10.4904L49.4803 1.41559M46.6398 10.4904C47.0698 10.7557 47.6157 10.8865 48.2742 10.8865C48.9327 10.8865 49.4744 10.7557 49.8956 10.4902C50.314 10.2264 50.6415 9.87152 50.8778 9.42636C51.1221 8.98284 51.289 8.47248 51.3791 7.896C51.4688 7.32147 51.5137 6.7203 51.5137 6.09254C51.5137 5.72503 51.5002 5.34864 51.4733 4.96338C51.4464 4.57687 51.3924 4.20364 51.3115 3.84373C51.2303 3.47421 51.1131 3.12688 50.9597 2.80187C50.8144 2.47518 50.6191 2.1889 50.3737 1.94341M46.6398 10.4904L50.338 1.97843M49.4992 1.36929C49.4994 1.36936 49.4995 1.36943 49.4997 1.36951L49.4803 1.41559M49.4992 1.36929C49.499 1.36922 49.4988 1.36915 49.4987 1.36908L49.4803 1.41559M49.4992 1.36929C49.8444 1.50561 50.1362 1.69687 50.3737 1.94341M49.4803 1.41559C49.8198 1.5496 50.1057 1.73721 50.338 1.97843M50.3737 1.94341C50.3736 1.9433 50.3734 1.94319 50.3733 1.94308L50.338 1.97843M50.3737 1.94341C50.3738 1.94352 50.3739 1.94364 50.374 1.94375L50.338 1.97843M50.4625 4.51665L50.4625 4.51665L50.4626 4.51765C50.5249 4.99786 50.556 5.49155 50.556 5.99874C50.556 6.47035 50.5293 6.95097 50.4759 7.44062C50.4227 7.92809 50.3165 8.36568 50.1577 8.75381C49.9999 9.13953 49.7681 9.45406 49.4625 9.69857L49.4619 9.69902C49.1695 9.93987 48.7753 10.0628 48.2742 10.0628C47.8257 10.0628 47.456 9.9706 47.1621 9.78934C46.8755 9.59804 46.6444 9.33251 46.4694 8.99115C46.2937 8.64853 46.1655 8.23404 46.0857 7.7467C46.0146 7.24928 45.979 6.69794 45.979 6.09254C45.979 5.57654 46.0102 5.06951 46.0724 4.57146C46.1434 4.07496 46.2629 3.6328 46.4306 3.24455C46.5975 2.85799 46.825 2.55239 47.1125 2.32593L47.1126 2.32581C47.4057 2.09306 47.7826 1.97483 48.2474 1.97483C48.7401 1.97483 49.1305 2.08916 49.4231 2.31297L49.4231 2.31298L49.4237 2.31339C49.7289 2.54012 49.9649 2.84124 50.1314 3.21813C50.2988 3.59685 50.4093 4.0295 50.4625 4.51665Z" fill="black" stroke="black" stroke-width="0.1"/>
<path d="M39.1964 3.62676V3.67676H39.2464H41.6354V10.6489V10.6989H41.6854H42.5431H42.5931V10.6489V1.20117V1.15117H42.5431H41.8596H41.8177L41.8104 1.19242C41.7396 1.59063 41.6296 1.90547 41.4823 2.1394L41.482 2.13984C41.3432 2.36536 41.1662 2.53782 40.9507 2.65846L40.9507 2.65845L40.95 2.6589C40.742 2.78022 40.4936 2.86336 40.2038 2.90727L40.2036 2.9073C39.9193 2.95173 39.599 2.98733 39.2427 3.01405L39.1964 3.01752V3.06391V3.62676Z" fill="black" stroke="black" stroke-width="0.1"/>
<path d="M36.6995 10.6485V10.6985H36.7495H37.7278H37.7778V10.6485V9.46924V9.41924H37.7278H36.7495H36.6995V9.46924V10.6485Z" fill="black" stroke="black" stroke-width="0.1"/>
<path d="M28.2018 10.6614L30.4048 2.27152L32.6078 10.6614L32.6176 10.6987H32.6562H33.6612H33.6998L33.7096 10.6614L36.2424 1.01269L36.2589 0.95H36.194H35.256H35.217L35.2075 0.9878L33.1378 9.21361L30.9758 0.987291L30.966 0.95H30.9274H29.909H29.8706L29.8607 0.987074L27.6589 9.21403L25.6156 0.987946L25.6061 0.95H25.567H24.6558H24.5912L24.6074 1.01251L27.0999 10.6612L27.1096 10.6987H27.1483H28.1534H28.192L28.2018 10.6614Z" fill="black" stroke="black" stroke-width="0.1"/>
<path d="M16.2927 10.6614L18.4957 2.27152L20.6987 10.6614L20.7085 10.6987H20.7471H21.7522H21.7907L21.8005 10.6614L24.3333 1.01269L24.3498 0.95H24.2849H23.3469H23.3079L23.2984 0.9878L21.2288 9.21361L19.0667 0.987291L19.0569 0.95H19.0183H17.9999H17.9615L17.9516 0.987074L15.7498 9.21403L13.7065 0.987946L13.697 0.95H13.6579H12.7467H12.6821L12.6983 1.01251L15.1909 10.6612L15.2005 10.6987H15.2393H16.2443H16.2829L16.2927 10.6614Z" fill="black" stroke="black" stroke-width="0.1"/>
<path d="M4.38358 10.6614L6.58659 2.27152L8.7896 10.6614L8.7994 10.6987H8.83796H9.84304H9.88161L9.8914 10.6614L12.4242 1.01269L12.4406 0.95H12.3758H11.4378H11.3988L11.3893 0.9878L9.31963 9.21361L7.15759 0.987291L7.14779 0.95H7.10923H6.09075H6.05237L6.04245 0.987074L3.84069 9.21403L1.79735 0.987946L1.78792 0.95H1.74882H0.837555H0.772997L0.789144 1.01251L3.28173 10.6612L3.29142 10.6987H3.33014H4.33522H4.37379L4.38358 10.6614Z" fill="black" stroke="black" stroke-width="0.1"/>
</svg>
